<svg xmlns="http://www.w3.org/2000/svg" viewBox="0 0 412.04 86.03"><defs><style>.cls-1{fill:#10514b;}.cls-2{fill:#f9d84d;}</style></defs><title>Risorsa 2</title><g id="Livello_2" data-name="Livello 2"><g id="Livello_1-2" data-name="Livello 1"><g id="BDFSYI"><path class="cls-1" d="M324.26,85.07a6,6,0,0,0,.84-.42c.3-.22.73-.46.79-.75s-.22-.71-.43-1-.84-.61-.83-.89a13.24,13.24,0,0,1,.43-2.81c0-.17.56-.3.86-.31,1.54-.08,3.09-.16,4.63-.13a4.64,4.64,0,0,1,1.84.57c1.76-.32,1.76-.32,1.27-2.63-1.88-.16-3.81.19-5.69-.1V76l17.42-.46c0-1.75,0-3.43,0-5.11q-.29-14.56-.63-29.13c0-1.28.33-1.47,2.51-1.21a83.86,83.86,0,0,0,20.34.06c1.91-.23,2.33.13,2.37,1.43q.43,16.11.93,32.21c0,.32,0,.65.08,1.12.55,0,1,0,1.55,0,2.57-.07,5.15-.15,7.72-.2.6,0,.95-.09.95-.83,0-13.13,0-26.26,0-39.67l-52.93,1.16c0,.54,0,.92,0,1.31q.09,18.82.17,37.63a11.55,11.55,0,0,1-.19,1.52l-.5,0a7.85,7.85,0,0,1-.32-1.52c-.06-5.48-.08-11-.13-16.44-.07-7.28-.17-14.57-.24-21.85a1.92,1.92,0,0,1,1.89-1.94c14.31-.24,28.63-.45,42.94-.72,8.09-.16,16.18-.42,24.27-.64.2,0,.41,0,.75-.08l-2.07-2.59h-.53q-35.93,0-71.85,0a4.83,4.83,0,0,0-1.74.32c-2.9,1.12-5.79,2.3-8.68,3.44-1.24.49-1.87.06-1.93-1.28q-.23-4.84-.47-9.69c-.17-.05-.33-.19-.39,0-.91,3.07-4.39,4.75-6.77,2.6-.46-.41-.59.07-.86.17-2,.75-2.38.47-2.62-1.69-.37-3.38-.82-6.75-1.26-10.3l-14.4,4.67-.2-.4a3.51,3.51,0,0,1,.81-.57c4.39-1.48,8.77-3,13.19-4.37a12.26,12.26,0,0,1,3.28-.28q27-.71,53.94-1.39c4.56-.11,9.12-.15,13.68-.27.65,0,1.06.11,1.21.78.26,1.13.64,2.24.79,3.38.21,1.54.24,3.1.35,4.66L370,20a4.74,4.74,0,0,1-.48-1.21c-.14-1.35-.19-2.71-.28-4.07a6.27,6.27,0,0,0-.09-.87c-.39-1.85-.71-2.06-2.56-2-7.61.19-15.22.35-22.84.55q-17,.44-34,.92c-3.44.1-6.89.22-10.49.33l.83,11.07c2.39-.93,4.71-1.8,7-2.74a5.12,5.12,0,0,1,3.61-.61,17,17,0,0,0,4.6.07L330,21.21l25.91-.46c7.75-.13,15.51-.27,23.26-.37a1.39,1.39,0,0,1,1.08.61c1.17,2.69,2.26,5.41,3.42,8.25h1.2c7.68-.16,15.37-.29,23.05-.51a2,2,0,0,1,2.28,1.38c.15.41.42.77.61,1.17.52,1.11.16,1.77-1,1.89l-10.3,1.11c-.14,0-.29.05-.35.07V77.62l6.33-.75c1.49-.18,3-.44,4.47-.56.79-.06,1.05-.31,1-1.13-.08-9.19-.12-18.39-.18-27.59,0-4.21-.07-8.43-.07-12.64a4.34,4.34,0,0,1,.49-1.36,4,4,0,0,1,.53,1.33c.07,12.69.08,25.38.14,38.07,0,.93.06,1.86.11,2.78s-.12,1.09-1,1.18c-3.89.42-7.77,1-11.66,1.44a2.61,2.61,0,0,1-.86,0c-3.74-.83-7.44-1.82-11.21-2.44a50.46,50.46,0,0,0-7.54-.5c-11.07.2-22.14.52-33.21.79l-10,.25c-.47,0-.93.06-1.36.08a6.61,6.61,0,0,1,.23,2.59c-.22.64-1.15,1-2,1.72a26.19,26.19,0,0,0,5.23-.71v-.28a6.42,6.42,0,0,1-1.45-.19c-.38-.14-1-.62-1-.73a14.15,14.15,0,0,1,1.07-1.91l.71,1.24-.23.19a6.89,6.89,0,0,0,.72.14c1.25.11,1.48.37,1.53,1.64,0,1.09-.76,1.08-1.47,1.21a7,7,0,0,0-1.86.5,12.28,12.28,0,0,0,1.71.12c1.11-.07,1.77.28,1.76,1.5a11.89,11.89,0,0,0,.15,1.41h-1.54c.21-.65.71-1.54-.39-1.69a30,30,0,0,0-4.08,0c-.33.79-.29,1.39.52,1.74h-2c-.07-1.3.59-2.71-.54-3.72a13,13,0,0,1-1.14.83,1.22,1.22,0,0,0,0,2.23l1.07.66h-2.42c-1-2.27-.92-2.46.91-4,.22-.19.27-.57.44-1h-5c0,.62-.13,1.43.16,1.66,1.22.95,1.17,2.08.8,3.34Zm61.9-10c0-.48,0-.83,0-1.22,0-5.34,0-10.69,0-16,0-1,.34-1.31,1.26-1.22s1.94.15,2.92.18c1.78.06,1.92.2,1.92,2,0,5.61,0,11.22,0,16.83,0,.38.17,1,.38,1.08,1.86.49,3.74.88,5.53,1.28V35.07h-16v40Zm-74.86-52L312,34c2.06-.83,3.93-1.69,5.87-2.34S321.28,30,323.32,30c10.3.06,20.61,0,30.91,0l27,0h1.34c-1.15-2.69-2.18-5.17-3.29-7.61-.12-.26-.7-.45-1.07-.44q-12.62.19-25.24.43c-9.46.19-18.93.46-28.39.63C320.2,23.15,315.85,23.09,311.3,23.09Zm56.95,18H357.79l.37,34.08c.79,0,1.23,0,1.88,0a69.13,69.13,0,0,1,8.14-.15c1.19,0,1.37-.34,1.33-1.34-.33-7.75-.6-15.5-.9-23.25C368.49,47.28,368.37,44.19,368.25,41.07Zm-10.88,34c0-.41.07-.62.06-.83q-.37-11.95-.75-23.9c-.09-2.84-.19-5.68-.24-8.52a1.07,1.07,0,0,0-1.09-1c-2.59,0-5.18,0-7.77,0-.7,0-.87.37-.86,1,0,1.27.06,2.54.08,3.82q.26,12.89.52,25.78c0,1.29,0,2.58,0,3.72Zm33.79,1.09c0-2.41,0-4.63,0-6.84,0-3.64,0-7.28,0-10.92,0-.35-.29-1-.48-1-1.32-.09-2.65,0-4,0,0,2.14,0,4.21,0,6.27,0,3.56,0,7.13,0,10.69a1.2,1.2,0,0,0,.58.94C388.44,75.62,389.73,75.85,391.16,76.16ZM410,32.26c-.92-.81-.68-2.19-2.13-2.13-3.6.16-7.21.27-10.82.41-.46,0-.92.08-1.37.12l-.15.28c.79.74,1.53,1.53,2.38,2.19a2.2,2.2,0,0,0,1.4.39c3-.23,6-.52,9-.82A12.83,12.83,0,0,0,410,32.26ZM346.39,76.07h.38L346,41.89h-.36Zm22.91-35h-.47l1.23,30.61h.12Z"/><path class="cls-1" d="M319,34.31c-2.77,1.1-5.28,2.17-7.85,3.06a13.94,13.94,0,0,1-3.13.35l-.14-.47a3.79,3.79,0,0,1,.85-.57c3.32-1.1,6.64-2.17,10-3.24,1.07-.34,1.62.14,1.61,1.43Q320.14,48.43,320,62c0,1.89,0,3.79-.12,5.68,0,.36-.39.71-.6,1.07a3.17,3.17,0,0,1-.45-1.08q0-15.91.13-31.81C319,35.42,319,35,319,34.31Z"/><path class="cls-1" d="M334.19,56.51h-2.34a1.3,1.3,0,0,1-1.45-1.41c0-2.93-.41-2.47,2.34-2.49h1.59c0-.94,0-1.8,0-2.65s.28-1.39,1.28-1.26a9.17,9.17,0,0,0,1.2,0c1.64,0,1.64,0,1.36,1.7v2.14c1.33,0,2.3,0,3.26,0,.69,0,1,.2,1,.93-.06,2.93.37,3.11-2.92,3-.29,0-.57,0-.32.06v2.27a7.46,7.46,0,0,0-.7,4.15c.07,1-.42,1.28-1.24,1.37h-.11c-2.91.28-2.92.28-2.92-2.6C334.19,60.07,334.19,58.36,334.19,56.51Zm.83-.67c0,2.27,0,4.37,0,6.47,0,1.68,0,1.68,1.72,1.53a1.21,1.21,0,0,0,.31-.13,2.71,2.71,0,0,0,.07-.42c0-2.16,0-4.32,0-6.49a.89.89,0,0,1,.93-.92c.87,0,1.75,0,2.62,0,.69,0,.92-.32.92-1s-.31-.88-.92-.86-1.53,0-2.29,0-1-.27-1-1c.05-1.07,0-2.15,0-3.2-2-.31-2.25-.13-2.25,1.66,0,.82,0,1.65,0,2.61h-3.8c-.26,1.77-.26,1.77,1.29,1.77Z"/><path class="cls-1" d="M323.07,31a4.3,4.3,0,0,1,.26,1q0,17.31,0,34.63a5.55,5.55,0,0,1-.18,1l-.34,0a3.79,3.79,0,0,1-.27-1q0-17.37,0-34.74a4.68,4.68,0,0,1,.2-1Z"/><path class="cls-1" d="M400.77,36.69c3.47-.08,3.07-.49,3.07,2.67s0,6.24,0,9.51a16.18,16.18,0,0,1-2.32,0,1.09,1.09,0,0,1-.72-.76C400.76,44.31,400.77,40.53,400.77,36.69Zm1.39,11.37h1v-11h-1Z"/><path class="cls-1" d="M409.16,36.44V48.68a19.4,19.4,0,0,1-2.15,0,.85.85,0,0,1-.51-.64c0-3.56,0-7.13,0-10.69,0-.3.5-.75.84-.84A7.3,7.3,0,0,1,409.16,36.44Zm-1,.93c-1.21-.38-1.42.14-1.21,1.71a26.11,26.11,0,0,1,0,7.17c-.27,1.86.28,1.89,1.22,1.58Z"/><path class="cls-1" d="M307.73,25.69c-3,1-5.72,2.52-8.69,3.29l-.21-.49c.89-.44,1.77-.94,2.69-1.32,1.95-.8,3.93-1.5,5.87-2.32.73-.3,1.13-.27,1.17.59q.21,4.63.37,9.27a.76.76,0,0,1-.36.56C307.82,32.16,308.15,28.95,307.73,25.69Z"/><path class="cls-1" d="M296.81,17.25l-2.45.68-.19-.46a11,11,0,0,1,1.37-.68c2-.69,2-.68,2.28,1.46.31,2.74.65,5.47.93,8.21a2.7,2.7,0,0,1-.3,1,3.36,3.36,0,0,1-.47-1c-.37-2.88-.7-5.77-1-8.65C296.92,17.65,296.86,17.48,296.81,17.25Z"/><path class="cls-1" d="M368.7,65.12c-3.15.35-6.13.07-9.09.21l-.11-.27c.23-.14.45-.4.68-.4,2.72,0,5.45,0,8.17.09C368.39,64.76,368.44,64.85,368.7,65.12Z"/><path class="cls-1" d="M359.27,63.07h8.89v1h-8.9C359.26,63.18,359.26,63.07,359.27,63.07Z"/><path class="cls-1" d="M367.74,51.07h-8.58v-.42a81.31,81.31,0,0,1,8.6,0Z"/><path class="cls-1" d="M359.09,52.75c2.86-.37,5.72,0,8.59-.06v.38l-8.51.53Z"/><path class="cls-1" d="M347.63,65.29c1.43-.65,7.39-.44,8,.26A41.79,41.79,0,0,1,347.63,65.29Z"/><path class="cls-1" d="M347.56,51.07H355C354.46,51.7,348.51,51.81,347.56,51.07Z"/><path class="cls-1" d="M355.53,53.07c-1.09.68-7,.64-7.74,0Z"/><path class="cls-1" d="M355.64,63.55a59.5,59.5,0,0,1-7-.11v-.38h7Z"/></g><path class="cls-2" d="M120.18,51.6H107.85V50.08l.95-.1a2.25,2.25,0,0,0,.82-.21,1,1,0,0,0,.58-.7,5.28,5.28,0,0,0,.12-1.26v-9.7a5.54,5.54,0,0,0-.76-3.21,2.51,2.51,0,0,0-2.18-1.07,4.25,4.25,0,0,0-1.59.28,6.16,6.16,0,0,0-1.28.7,4.45,4.45,0,0,0-.94.87l-.56.75V47.59a3.51,3.51,0,0,0,.18,1.21,1.4,1.4,0,0,0,.65.74,4.43,4.43,0,0,0,.75.33,4.55,4.55,0,0,0,.9.21V51.6H93.68V50.08l.95-.1a2.37,2.37,0,0,0,.82-.21,1.1,1.1,0,0,0,.57-.66,4.66,4.66,0,0,0,.13-1.29v-9.7a5.54,5.54,0,0,0-.76-3.21,2.51,2.51,0,0,0-2.18-1.07,4.25,4.25,0,0,0-1.59.28,6.14,6.14,0,0,0-1.28.7,4.45,4.45,0,0,0-.94.87l-.56.75V47.59A3.34,3.34,0,0,0,89,48.8a1.45,1.45,0,0,0,.66.75,4.46,4.46,0,0,0,.76.33,4.62,4.62,0,0,0,.9.21V51.6H78.92V50.08L80,50a3.72,3.72,0,0,0,.89-.21,1.62,1.62,0,0,0,.91-.72A2.63,2.63,0,0,0,82,47.82V35.74a2.64,2.64,0,0,0-.35-1.3,2.94,2.94,0,0,0-.85-1,3.42,3.42,0,0,0-.94-.42,6.65,6.65,0,0,0-1.26-.23V31.29l9.9-.54.31.31V34h.08l1.38-1.24a10.75,10.75,0,0,1,1.51-1.15,7.11,7.11,0,0,1,2-.83,9.92,9.92,0,0,1,2.64-.33,7.13,7.13,0,0,1,4,1,5.62,5.62,0,0,1,2.25,2.73h.19q.6-.56,1.47-1.32a13.29,13.29,0,0,1,1.6-1.21,7.68,7.68,0,0,1,2.07-.87,9.9,9.9,0,0,1,2.69-.35,6.22,6.22,0,0,1,4.83,1.85,7.51,7.51,0,0,1,1.69,5.25V47.63a2.83,2.83,0,0,0,.23,1.24,1.52,1.52,0,0,0,.83.72,7.27,7.27,0,0,0,.82.29,6,6,0,0,0,1.13.21Z"/><path class="cls-2" d="M146.71,51.16a15.56,15.56,0,0,1-2.16.73,10.19,10.19,0,0,1-2.63.33,7.22,7.22,0,0,1-3.75-.76,3.79,3.79,0,0,1-1.64-2.17h-.12a13.54,13.54,0,0,1-1.36,1.2,7.83,7.83,0,0,1-1.4.85,10.73,10.73,0,0,1-1.88.69,10.91,10.91,0,0,1-2.53.23,6.21,6.21,0,0,1-4.12-1.42,4.67,4.67,0,0,1-1.71-3.77,6.26,6.26,0,0,1,.37-2.3,5.21,5.21,0,0,1,1.06-1.67A5.5,5.5,0,0,1,126.3,42a16,16,0,0,1,1.8-.81q1.87-.69,4.49-1.42a25.33,25.33,0,0,0,3.83-1.32v-2q0-.52-.08-1.37a4.43,4.43,0,0,0-.35-1.43,2.75,2.75,0,0,0-.91-1.12,2.72,2.72,0,0,0-1.64-.46,3.93,3.93,0,0,0-1.53.26,5.17,5.17,0,0,0-1,.53,8.13,8.13,0,0,0,.35,1.27,5.06,5.06,0,0,1,.29,1.64,2.77,2.77,0,0,1-.19.88,2,2,0,0,1-.54.84,3.59,3.59,0,0,1-1.07.64,5.41,5.41,0,0,1-1.82.23,3.73,3.73,0,0,1-2.64-.84,3,3,0,0,1,0-4.28,7.55,7.55,0,0,1,2.25-1.53,12.94,12.94,0,0,1,3-1,16.13,16.13,0,0,1,3.16-.34,26.4,26.4,0,0,1,3.7.24,8.74,8.74,0,0,1,3,1,5.27,5.27,0,0,1,2,2.11,7.46,7.46,0,0,1,.76,3.6q0,2.35-.09,5.56t-.09,4.24a3.22,3.22,0,0,0,.28,1.47,1.78,1.78,0,0,0,.86.81,3,3,0,0,0,1.11.2q.76,0,1.38,0Zm-10.3-10.82q-1.17.4-2.31.91a9.21,9.21,0,0,0-1.88,1.07A4,4,0,0,0,131,43.81a4.85,4.85,0,0,0-.44,2.13,3.2,3.2,0,0,0,.74,2.35,2.5,2.5,0,0,0,1.82.73,3.46,3.46,0,0,0,1.89-.47,5.42,5.42,0,0,0,1.3-1.16Z"/><path class="cls-2" d="M176.57,51.6H164.09V50.08l1-.1a2.64,2.64,0,0,0,.85-.21,1.32,1.32,0,0,0,.62-.66,3.42,3.42,0,0,0,.19-1.29V38.1a5.39,5.39,0,0,0-.78-3.19,2.67,2.67,0,0,0-2.3-1.07,4.7,4.7,0,0,0-1.55.25,5.78,5.78,0,0,0-1.41.73,4.79,4.79,0,0,0-1,.85q-.36.44-.61.77V47.59a3.1,3.1,0,0,0,.21,1.21,1.45,1.45,0,0,0,.69.74,3.94,3.94,0,0,0,.83.33,6.44,6.44,0,0,0,1,.21V51.6H149.16V50.08q.52,0,1-.11a5.12,5.12,0,0,0,.9-.2,1.53,1.53,0,0,0,.91-.71,2.69,2.69,0,0,0,.25-1.25V35.74a2.67,2.67,0,0,0-.33-1.27,3,3,0,0,0-.87-1,3.43,3.43,0,0,0-.94-.42,6.65,6.65,0,0,0-1.26-.23V31.29l9.9-.54.31.31v3h.08l1.41-1.25a13.63,13.63,0,0,1,1.54-1.18,7.47,7.47,0,0,1,2-.85,9.71,9.71,0,0,1,2.66-.35,6.41,6.41,0,0,1,5.08,1.92,7.43,7.43,0,0,1,1.69,5.1V47.63a2.75,2.75,0,0,0,.23,1.22,1.61,1.61,0,0,0,.85.73,7.2,7.2,0,0,0,.82.29,6,6,0,0,0,1.11.21Z"/><path class="cls-2" d="M195.86,51.6H179.29V50.5l11.6-17.69H188q-1.81,0-2.83.06a5.78,5.78,0,0,0-1.87.42,2.42,2.42,0,0,0-1.09,1.31,13.28,13.28,0,0,0-.88,2.82h-1.27V31.13h15.66V32L184,49.92l1.64,0h1.93l1.73,0q.9,0,2.31-.1a1.64,1.64,0,0,0,1.26-.56,3.8,3.8,0,0,0,.65-1.18q.23-.6.55-1.66t.57-2.06h1.25Z"/><path class="cls-2" d="M219.34,41.16a13.52,13.52,0,0,1-.69,4.25,10.13,10.13,0,0,1-2,3.54,9.09,9.09,0,0,1-3.33,2.47,10.68,10.68,0,0,1-4.24.81,9.57,9.57,0,0,1-3.72-.74,9.35,9.35,0,0,1-3.14-2.15,10.25,10.25,0,0,1-2.15-3.39,12,12,0,0,1-.8-4.5,11.17,11.17,0,0,1,2.8-7.85,10.23,10.23,0,0,1,14.42-.16A10.64,10.64,0,0,1,219.34,41.16Zm-4.3,0a18.6,18.6,0,0,0-.31-3.29A10.42,10.42,0,0,0,213.8,35,5.75,5.75,0,0,0,212,32.9a4.4,4.4,0,0,0-2.64-.78,4.67,4.67,0,0,0-2.74.79,5.82,5.82,0,0,0-1.84,2.16,9.55,9.55,0,0,0-.94,2.89,19.1,19.1,0,0,0-.27,3.13,19.72,19.72,0,0,0,.32,3.69,10.61,10.61,0,0,0,1,3,5.88,5.88,0,0,0,1.78,2.09,4.48,4.48,0,0,0,2.65.76,4.63,4.63,0,0,0,4.12-2.51A13.4,13.4,0,0,0,215,41.2Z"/><path class="cls-2" d="M232.73,51.6h-10V50.23l1-.09a4.85,4.85,0,0,0,.89-.16,1.54,1.54,0,0,0,.87-.65,2.28,2.28,0,0,0,.29-1.22V24.38a3.13,3.13,0,0,0-.32-1.4,2.71,2.71,0,0,0-.84-1,4.25,4.25,0,0,0-1.37-.46,12.61,12.61,0,0,0-1.6-.25V19.91l7.7-.46.29.31V47.86a2.35,2.35,0,0,0,.27,1.19,1.72,1.72,0,0,0,.87.72,4.79,4.79,0,0,0,.9.31,6.67,6.67,0,0,0,1,.15Z"/><path class="cls-2" d="M246.08,51.6H236.2V50.23l1-.08a3.82,3.82,0,0,0,.88-.17,1.49,1.49,0,0,0,.86-.65,2.33,2.33,0,0,0,.28-1.21V35.48a2.49,2.49,0,0,0-.3-1.21,2.69,2.69,0,0,0-.84-.92,3.83,3.83,0,0,0-1.14-.42,8.48,8.48,0,0,0-1.37-.22V31.33l7.23-.46.29.29V47.86a2.36,2.36,0,0,0,.28,1.2,1.65,1.65,0,0,0,.88.71,6.89,6.89,0,0,0,.89.3,5.53,5.53,0,0,0,1,.16Zm-2.6-28.8a3,3,0,0,1-.78,2.07,2.46,2.46,0,0,1-1.92.88,2.42,2.42,0,0,1-1.84-.84,2.75,2.75,0,0,1-.78-1.92,2.86,2.86,0,0,1,.78-2,2.41,2.41,0,0,1,1.84-.85,2.56,2.56,0,0,1,1.94.8A2.62,2.62,0,0,1,243.49,22.8Z"/><path class="cls-2" d="M272.08,51.6h-10V50.23l1-.08a4,4,0,0,0,.94-.17,1.49,1.49,0,0,0,.86-.65,2.33,2.33,0,0,0,.28-1.21V37.58a5,5,0,0,0-1-3.36A3.2,3.2,0,0,0,261.67,33a5.72,5.72,0,0,0-2,.34,7.18,7.18,0,0,0-1.62.84,4.61,4.61,0,0,0-1.09,1,9.12,9.12,0,0,0-.59.88V47.9a2.14,2.14,0,0,0,.29,1.16,1.87,1.87,0,0,0,.87.71,4.08,4.08,0,0,0,.95.31,8.59,8.59,0,0,0,1,.15V51.6h-10V50.23l1-.08a3.81,3.81,0,0,0,.88-.17,1.49,1.49,0,0,0,.86-.65,2.33,2.33,0,0,0,.28-1.21V35.48a2.82,2.82,0,0,0-.3-1.3,2.58,2.58,0,0,0-.84-1,2.83,2.83,0,0,0-.93-.36,8.25,8.25,0,0,0-1.16-.16V31.33l6.81-.46.29.29v2.89h.1q.5-.5,1.25-1.19a10.88,10.88,0,0,1,1.41-1.13,7.47,7.47,0,0,1,1.83-.83,8,8,0,0,1,2.39-.33,5.18,5.18,0,0,1,4.37,1.84,7.78,7.78,0,0,1,1.42,4.89V47.95a2.4,2.4,0,0,0,.25,1.17,1.64,1.64,0,0,0,.85.7,5.39,5.39,0,0,0,.86.29,6.73,6.73,0,0,0,1,.13Z"/><path class="cls-2" d="M295.42,41.16a13.52,13.52,0,0,1-.69,4.25,10.13,10.13,0,0,1-2,3.54,9.09,9.09,0,0,1-3.33,2.47,10.68,10.68,0,0,1-4.24.81,9.57,9.57,0,0,1-3.72-.74,9.35,9.35,0,0,1-3.14-2.15,10.25,10.25,0,0,1-2.15-3.39,12,12,0,0,1-.8-4.5,11.17,11.17,0,0,1,2.8-7.85,10.23,10.23,0,0,1,14.42-.16A10.64,10.64,0,0,1,295.42,41.16Zm-4.3,0a18.6,18.6,0,0,0-.31-3.29,10.42,10.42,0,0,0-.94-2.94,5.75,5.75,0,0,0-1.75-2.07,4.4,4.4,0,0,0-2.64-.78,4.67,4.67,0,0,0-2.74.79,5.82,5.82,0,0,0-1.84,2.16A9.55,9.55,0,0,0,280,38a19.1,19.1,0,0,0-.27,3.13,19.72,19.72,0,0,0,.32,3.69,10.61,10.61,0,0,0,1,3,5.88,5.88,0,0,0,1.78,2.09,4.48,4.48,0,0,0,2.65.76,4.63,4.63,0,0,0,4.12-2.51A13.4,13.4,0,0,0,291.12,41.2Z"/><path class="cls-2" d="M97.88,79.17a14.29,14.29,0,0,1-5.1-.84A10,10,0,0,1,89.14,76,9.39,9.39,0,0,1,87,72.55a13.16,13.16,0,0,1-.71-4.38,10.06,10.06,0,0,1,.86-4.11,10.81,10.81,0,0,1,6.1-5.85,13.26,13.26,0,0,1,5-.9,11,11,0,0,1,6,1.44,4.44,4.44,0,0,1,2.22,3.89,3.55,3.55,0,0,1-.79,2.41A3.44,3.44,0,0,1,103,66a4.37,4.37,0,0,1-2.61-.75,2.29,2.29,0,0,1-1-2,6.33,6.33,0,0,1,.33-2,8.46,8.46,0,0,0,.39-1.52,1.58,1.58,0,0,0-.58-.57,2.34,2.34,0,0,0-1.1-.2,3.38,3.38,0,0,0-1.7.44,4.2,4.2,0,0,0-1.43,1.54,9,9,0,0,0-1,2.78,19.75,19.75,0,0,0-.38,4.19,9.54,9.54,0,0,0,1.73,6,5.1,5.1,0,0,0,4.14,2.26,5.94,5.94,0,0,0,3.66-1,9.26,9.26,0,0,0,2.42-2.92l1.56,1.08a11.83,11.83,0,0,1-1.54,2.32,9.81,9.81,0,0,1-2.14,1.86A11.19,11.19,0,0,1,101,78.73,10.21,10.21,0,0,1,97.88,79.17Z"/><path class="cls-2" d="M132.35,78.07a15.56,15.56,0,0,1-2.16.73,10.19,10.19,0,0,1-2.63.33,7.22,7.22,0,0,1-3.75-.76,3.79,3.79,0,0,1-1.64-2.17H122a13.54,13.54,0,0,1-1.36,1.2,7.83,7.83,0,0,1-1.4.85,10.73,10.73,0,0,1-1.88.69,10.91,10.91,0,0,1-2.53.23,6.21,6.21,0,0,1-4.12-1.42A4.67,4.67,0,0,1,109,74a6.26,6.26,0,0,1,.37-2.3A5.21,5.21,0,0,1,110.48,70a5.5,5.5,0,0,1,1.45-1.1,16,16,0,0,1,1.8-.81q1.87-.69,4.49-1.42A25.33,25.33,0,0,0,122,65.34v-2q0-.52-.08-1.37a4.43,4.43,0,0,0-.35-1.43,2.75,2.75,0,0,0-.91-1.12,2.72,2.72,0,0,0-1.64-.46,3.93,3.93,0,0,0-1.53.26,5.17,5.17,0,0,0-1,.53A8.13,8.13,0,0,0,116.9,61a5.06,5.06,0,0,1,.29,1.64,2.77,2.77,0,0,1-.19.88,2,2,0,0,1-.54.84,3.59,3.59,0,0,1-1.07.64,5.41,5.41,0,0,1-1.82.23,3.73,3.73,0,0,1-2.64-.84,3,3,0,0,1,0-4.28,7.55,7.55,0,0,1,2.25-1.53,12.94,12.94,0,0,1,3-1,16.13,16.13,0,0,1,3.16-.34,26.4,26.4,0,0,1,3.7.24,8.74,8.74,0,0,1,3,1,5.27,5.27,0,0,1,2,2.11,7.46,7.46,0,0,1,.76,3.6q0,2.35-.09,5.56T128.71,74a3.22,3.22,0,0,0,.28,1.47,1.78,1.78,0,0,0,.86.81,3,3,0,0,0,1.11.2q.76,0,1.38,0ZM122,67.25q-1.17.4-2.31.91a9.21,9.21,0,0,0-1.88,1.07,4,4,0,0,0-1.21,1.49,4.85,4.85,0,0,0-.44,2.13A3.2,3.2,0,0,0,117,75.2a2.5,2.5,0,0,0,1.82.73,3.46,3.46,0,0,0,1.89-.47,5.42,5.42,0,0,0,1.3-1.16Z"/><path class="cls-2" d="M157.61,59.42a4.73,4.73,0,0,0-1.82.71,4.17,4.17,0,0,0-1.46,1.74q-1.45,3-2.85,6.12t-2.75,6q-.42.87-.94,2.24t-.88,2.49h-3.82q-2.39-5.54-4.08-9.2t-3.58-7.85a3.37,3.37,0,0,0-1.36-1.54,4.8,4.8,0,0,0-1.88-.69V57.91H145v1.52a6.53,6.53,0,0,0-1.66.31q-1,.29-1,.75a1.3,1.3,0,0,0,.08.37c.06.17.12.35.21.56q.67,1.58,2,4.55t2.84,6.25q1-2.26,2-4.43t2.33-5.53a3.41,3.41,0,0,0,.22-.81c0-.21,0-.35,0-.42a.81.81,0,0,0-.36-.65,3.79,3.79,0,0,0-.86-.49,6.42,6.42,0,0,0-1-.31c-.32-.07-.58-.12-.79-.15V57.91h8.58Z"/><path class="cls-2" d="M181.78,78.07a15.56,15.56,0,0,1-2.16.73,10.19,10.19,0,0,1-2.63.33,7.22,7.22,0,0,1-3.75-.76,3.79,3.79,0,0,1-1.64-2.17h-.12a13.54,13.54,0,0,1-1.36,1.2,7.83,7.83,0,0,1-1.4.85,10.73,10.73,0,0,1-1.88.69,10.91,10.91,0,0,1-2.53.23,6.21,6.21,0,0,1-4.12-1.42A4.67,4.67,0,0,1,158.49,74a6.26,6.26,0,0,1,.37-2.3A5.21,5.21,0,0,1,159.92,70a5.5,5.5,0,0,1,1.45-1.1,16,16,0,0,1,1.8-.81q1.87-.69,4.49-1.42a25.33,25.33,0,0,0,3.83-1.32v-2q0-.52-.08-1.37a4.43,4.43,0,0,0-.35-1.43,2.75,2.75,0,0,0-.91-1.12,2.72,2.72,0,0,0-1.64-.46,3.93,3.93,0,0,0-1.53.26,5.17,5.17,0,0,0-1,.53,8.13,8.13,0,0,0,.35,1.27,5.06,5.06,0,0,1,.29,1.64,2.77,2.77,0,0,1-.19.88,2,2,0,0,1-.54.84,3.59,3.59,0,0,1-1.07.64,5.41,5.41,0,0,1-1.82.23,3.73,3.73,0,0,1-2.64-.84,3,3,0,0,1,0-4.28,7.55,7.55,0,0,1,2.25-1.53,12.94,12.94,0,0,1,3-1,16.13,16.13,0,0,1,3.16-.34,26.4,26.4,0,0,1,3.7.24,8.74,8.74,0,0,1,3,1,5.27,5.27,0,0,1,2,2.11,7.46,7.46,0,0,1,.76,3.6q0,2.35-.09,5.56T178.15,74a3.22,3.22,0,0,0,.28,1.47,1.78,1.78,0,0,0,.86.81,3,3,0,0,0,1.11.2q.76,0,1.38,0Zm-10.3-10.82q-1.17.4-2.31.91a9.21,9.21,0,0,0-1.88,1.07,4,4,0,0,0-1.21,1.49,4.85,4.85,0,0,0-.44,2.13,3.2,3.2,0,0,0,.74,2.35,2.5,2.5,0,0,0,1.82.73,3.46,3.46,0,0,0,1.89-.47,5.42,5.42,0,0,0,1.3-1.16Z"/><path class="cls-2" d="M199.89,78.51H183.32v-1.1l11.6-17.69h-2.87q-1.81,0-2.83.06a5.78,5.78,0,0,0-1.87.42,2.42,2.42,0,0,0-1.09,1.31,13.28,13.28,0,0,0-.88,2.82h-1.27V58h15.66v.85L188,76.82l1.64,0h1.93l1.73,0q.91,0,2.31-.1a1.64,1.64,0,0,0,1.26-.56,3.8,3.8,0,0,0,.65-1.18q.23-.6.55-1.66t.57-2.06h1.25Z"/><path class="cls-2" d="M218.76,78.51H202.19v-1.1L213.8,59.71h-2.87q-1.81,0-2.83.06a5.78,5.78,0,0,0-1.87.42,2.42,2.42,0,0,0-1.09,1.31,13.25,13.25,0,0,0-.88,2.82H203V58h15.66v.85L206.87,76.82l1.64,0h1.93l1.73,0q.9,0,2.31-.1a1.64,1.64,0,0,0,1.26-.56A3.8,3.8,0,0,0,216.4,75q.23-.6.55-1.66t.57-2.06h1.25Z"/><path class="cls-2" d="M241.4,68.06a13.52,13.52,0,0,1-.69,4.25,10.13,10.13,0,0,1-2,3.54,9.09,9.09,0,0,1-3.33,2.47,10.68,10.68,0,0,1-4.24.81,9.57,9.57,0,0,1-3.72-.74,9.35,9.35,0,0,1-3.14-2.15,10.25,10.25,0,0,1-2.15-3.39,12,12,0,0,1-.8-4.5,11.17,11.17,0,0,1,2.8-7.85,10.23,10.23,0,0,1,14.42-.16A10.64,10.64,0,0,1,241.4,68.06Zm-4.3,0a18.6,18.6,0,0,0-.31-3.29,10.42,10.42,0,0,0-.94-2.94,5.75,5.75,0,0,0-1.75-2.07,4.4,4.4,0,0,0-2.64-.78,4.67,4.67,0,0,0-2.74.79A5.82,5.82,0,0,0,226.88,62a9.55,9.55,0,0,0-.94,2.89,19.1,19.1,0,0,0-.27,3.13,19.72,19.72,0,0,0,.32,3.69,10.61,10.61,0,0,0,1,3,5.88,5.88,0,0,0,1.78,2.09,4.48,4.48,0,0,0,2.65.76A4.63,4.63,0,0,0,235.58,75,13.4,13.4,0,0,0,237.1,68.1Z"/><path class="cls-2" d="M267,78.51h-10V77.14l1-.08a4,4,0,0,0,.94-.17,1.49,1.49,0,0,0,.86-.65,2.33,2.33,0,0,0,.28-1.21V64.49a5,5,0,0,0-1-3.36,3.2,3.2,0,0,0-2.51-1.18,5.72,5.72,0,0,0-2,.34,7.18,7.18,0,0,0-1.62.84,4.61,4.61,0,0,0-1.09,1,9.12,9.12,0,0,0-.59.88V74.81a2.14,2.14,0,0,0,.29,1.16,1.87,1.87,0,0,0,.87.71,4.08,4.08,0,0,0,.95.31,8.59,8.59,0,0,0,1,.15v1.37h-10V77.14l1-.08a3.81,3.81,0,0,0,.88-.17,1.49,1.49,0,0,0,.86-.65,2.33,2.33,0,0,0,.28-1.21V62.39a2.82,2.82,0,0,0-.3-1.3,2.58,2.58,0,0,0-.84-1,2.83,2.83,0,0,0-.93-.36,8.25,8.25,0,0,0-1.16-.16V58.24l6.81-.46.29.29V61h.1q.5-.5,1.25-1.19A10.88,10.88,0,0,1,254,58.63a7.47,7.47,0,0,1,1.83-.83,8,8,0,0,1,2.39-.33,5.18,5.18,0,0,1,4.37,1.84A7.78,7.78,0,0,1,264,64.2V74.85a2.4,2.4,0,0,0,.25,1.17,1.64,1.64,0,0,0,.85.7,5.39,5.39,0,0,0,.86.29,6.73,6.73,0,0,0,1,.13Z"/><path class="cls-2" d="M288.86,78.13q-1,.35-1.71.57a5.88,5.88,0,0,1-1.67.22,4.07,4.07,0,0,1-2.58-.76A3.5,3.5,0,0,1,281.66,76h-.12a10.15,10.15,0,0,1-2.9,2.28,8.13,8.13,0,0,1-3.73.79,5.27,5.27,0,0,1-3.79-1.41,4.87,4.87,0,0,1-1.48-3.7A6.29,6.29,0,0,1,270,71.8a5.06,5.06,0,0,1,1-1.68A5,5,0,0,1,272.33,69a12.07,12.07,0,0,1,1.6-.78q.93-.35,3.79-1.31a28.39,28.39,0,0,0,3.85-1.5V63.37a8.93,8.93,0,0,0-.11-1,4.35,4.35,0,0,0-.49-1.45,4.14,4.14,0,0,0-1.17-1.34,3.52,3.52,0,0,0-2.15-.57,4.83,4.83,0,0,0-1.78.32,3.23,3.23,0,0,0-1.15.67,5.66,5.66,0,0,0,.2,1.23,6.33,6.33,0,0,1,.2,1.49,1.78,1.78,0,0,1-.65,1.33,2.58,2.58,0,0,1-1.82.6,1.7,1.7,0,0,1-1.53-.74,2.91,2.91,0,0,1,.19-3.48,6.76,6.76,0,0,1,1.75-1.56,9.52,9.52,0,0,1,2.26-1,8.89,8.89,0,0,1,2.59-.41,17,17,0,0,1,3,.24,5.6,5.6,0,0,1,2.36,1,4.79,4.79,0,0,1,1.61,2.09,8.9,8.9,0,0,1,.55,3.4q0,3-.06,5.26t-.06,5a2.54,2.54,0,0,0,.28,1.29,2.28,2.28,0,0,0,.86.81,2.12,2.12,0,0,0,1,.21l1.38,0Zm-7.25-11q-1.77.52-3.09,1a12.47,12.47,0,0,0-2.47,1.25,5.63,5.63,0,0,0-1.64,1.67,4.27,4.27,0,0,0-.6,2.3,3.25,3.25,0,0,0,.9,2.54,3.3,3.3,0,0,0,2.29.81,4.71,4.71,0,0,0,2.6-.72,7.57,7.57,0,0,0,1.89-1.7Z"/><path class="cls-2" d="M83.88,19.4H80.72v4.89H79.46V12.42h4.42a3.38,3.38,0,0,1,3.67,3.49A3.39,3.39,0,0,1,83.88,19.4Zm-.12-5.85h-3v4.72h3a2.25,2.25,0,0,0,2.52-2.37A2.24,2.24,0,0,0,83.76,13.55Z"/><path class="cls-2" d="M94.57,24.29v-.78a2.88,2.88,0,0,1-2.37.88,2.92,2.92,0,0,1-2.32-.75A2.36,2.36,0,0,1,89.26,22c0-1.43,1-2.37,2.84-2.37h2.47v-.78c0-1.2-.6-1.8-2.1-1.8A2.15,2.15,0,0,0,90.4,18l-.82-.75A3.18,3.18,0,0,1,92.48,16c2.2,0,3.29,1,3.29,2.74v5.57Zm0-3.79h-2.3c-1.23,0-1.83.5-1.83,1.45s.58,1.4,1.88,1.4a2.4,2.4,0,0,0,1.83-.55,1.9,1.9,0,0,0,.42-1.42Z"/><path class="cls-2" d="M103.61,17.65a1.72,1.72,0,0,0-1.42-.6,2,2,0,0,0-2,2.2v5H99V16.09h1.2v1a2.76,2.76,0,0,1,2.3-1.1,2.53,2.53,0,0,1,2,.77Z"/><path class="cls-2" d="M111,17.65a1.72,1.72,0,0,0-1.42-.6,2,2,0,0,0-2,2.2v5h-1.2V16.09h1.2v1a2.76,2.76,0,0,1,2.3-1.1,2.53,2.53,0,0,1,2,.77Z"/><path class="cls-2" d="M118.43,23.46a3.43,3.43,0,0,1-4.7,0,4.41,4.41,0,0,1-1-3.27,4.41,4.41,0,0,1,1-3.27,3.43,3.43,0,0,1,4.7,0,4.41,4.41,0,0,1,1,3.27A4.4,4.4,0,0,1,118.43,23.46Zm-.85-5.8a2.1,2.1,0,0,0-1.5-.6,2.06,2.06,0,0,0-1.48.6,3.58,3.58,0,0,0-.67,2.54,3.58,3.58,0,0,0,.67,2.54,2.07,2.07,0,0,0,1.48.6,2.11,2.11,0,0,0,1.5-.6,3.58,3.58,0,0,0,.65-2.54A3.57,3.57,0,0,0,117.58,17.65Z"/><path class="cls-2" d="M125.52,24.39c-2.07,0-3.64-1.4-3.64-4.2s1.57-4.2,3.64-4.2a3.25,3.25,0,0,1,2.7,1.22l-.82.77a2.25,2.25,0,0,0-1.88-.92,2.23,2.23,0,0,0-1.9.93,3.52,3.52,0,0,0-.53,2.2,3.52,3.52,0,0,0,.53,2.2,2.22,2.22,0,0,0,1.9.93,2.27,2.27,0,0,0,1.88-.93l.82.78A3.25,3.25,0,0,1,125.52,24.39Z"/><path class="cls-2" d="M133.78,24.39c-2.07,0-3.64-1.4-3.64-4.2s1.57-4.2,3.64-4.2a3.25,3.25,0,0,1,2.7,1.22l-.82.77a2.25,2.25,0,0,0-1.88-.92,2.23,2.23,0,0,0-1.9.93,3.52,3.52,0,0,0-.53,2.2,3.52,3.52,0,0,0,.53,2.2,2.22,2.22,0,0,0,1.9.93,2.27,2.27,0,0,0,1.88-.93l.82.78A3.25,3.25,0,0,1,133.78,24.39Z"/><path class="cls-2" d="M144.35,24.29V19.22a1.89,1.89,0,0,0-2-2.17,1.94,1.94,0,0,0-2.05,2.17v5.07h-1.2V12.42h1.2V17a2.93,2.93,0,0,1,2.3-1,2.77,2.77,0,0,1,3,3v5.27Z"/><path class="cls-2" d="M148.74,13.75V12.4h1.35v1.35Zm.07,10.54V16.09H150v8.21Z"/><path class="cls-2" d="M154.11,20.5c0,1.8.85,2.84,2.42,2.84a2.69,2.69,0,0,0,2.15-.93l.82.72a3.76,3.76,0,0,1-3,1.27c-2.17,0-3.59-1.3-3.59-4.2,0-2.65,1.28-4.2,3.37-4.2s3.37,1.53,3.37,4v.55Zm4.09-2.27a2.11,2.11,0,0,0-3.84,0,3.45,3.45,0,0,0-.25,1.37h4.34A3.45,3.45,0,0,0,158.2,18.24Z"/><path class="cls-2" d="M171.93,24.29v-1a2.66,2.66,0,0,1-2.33,1.08,2.86,2.86,0,0,1-2-.72,4.9,4.9,0,0,1-1-3.49,4.9,4.9,0,0,1,1-3.49,2.86,2.86,0,0,1,2-.72A2.64,2.64,0,0,1,171.91,17V12.42h1.2V24.29Zm-2.07-7.24c-1.78,0-2.07,1.53-2.07,3.14s.28,3.13,2.07,3.13,2.05-1.53,2.05-3.13S171.65,17.05,169.86,17.05Z"/><path class="cls-2" d="M176.38,13.75V12.4h1.35v1.35Zm.07,10.54V16.09h1.2v8.21Z"/><path class="cls-1" d="M73,82.09c-.21-2.58-.3-5.18-.67-7.73-.76-5.11-1.64-10.2-2.54-15.29-.64-3.64-1.37-7.27-2.07-10.91.44-.21.8-.37,1.16-.55a1.57,1.57,0,0,0,1-1.87,1.39,1.39,0,0,0-1.7-1c-.72.11-1.07-.24-1.07-1a35.89,35.89,0,0,0-.06-3.63A17.48,17.48,0,0,0,66.35,37c-.07-.24-.45-.45-.73-.54-.11,0-.41.27-.49.48-.84,2-1.67,3.92-2.47,5.89-.29.73-.67.62-1.12.2s-.86-.89-1.33-1.27A8.35,8.35,0,0,1,57,36.15c-.37-3.7-.33-7.45-.4-11.18,0-1.73-.12-1.4,1.38-1.69a2.2,2.2,0,0,0,.58-.32c-.12-.21-.19-.52-.38-.63-.92-.54-1.87-1-2.82-1.55C51.25,18.62,47.1,16.47,43,14.27a1.58,1.58,0,0,1-.64-1.09,18.09,18.09,0,0,1,0-2.72c0-.74-.19-1.15-1-1.14a4.31,4.31,0,0,1-1.14-.16V7.07h-4V3a12.82,12.82,0,0,0,1.66-.4V2.28L36.56,2,36.32.1,35.92,0c0,1.28-.31,2.27-1.87,2.37l.23.26c.42,0,1.86.13,1.86.13v4s-1.85,0-2.49,0c-1.4,0-1.45,0-1.42,1.43,0,.93-.27,1.38-1.24,1.35s-1.3.46-1.23,1.4,0,1.89,0,2.82a1.32,1.32,0,0,1-1,1.5c-1.35.5-2.69,1.05-4,1.6-2.77,1.14-5.52,2.3-8.3,3.4-.62.25-.81.66-.64,1.15a1.43,1.43,0,0,0,.86.84,8.79,8.79,0,0,0,1.9,0c.18,4.34.24,8.53-1,12.55a7.48,7.48,0,0,1-4.69,5.08,1.47,1.47,0,0,1-1.31-.21,15.77,15.77,0,0,1-1.31-2.31,25.91,25.91,0,0,0-1.44-2.61c-.52-.75-1.18-.61-1.41.3-.47,1.8-.87,3.62-1.25,5.44C6,41.34,5.84,42,4.83,42.11a5.18,5.18,0,0,0-2,.43A3.17,3.17,0,0,0,1.4,44c-.27.71.51.92,1.08,1.11.37.13.75.23,1.22.37l-.78,6.75c-.36,3.16-.74,6.33-1.09,9.49C1.42,65.42,1,69.1.66,72.79.42,75.19.23,77.6,0,80c0,.38-.11.9.09,1.1s.72,0,1.08,0c.23-4.29.47-8.45.66-12.61.33-7.37,1.61-14.61,2.74-21.88.11-.7.1-1.42.14-2.08A14.8,14.8,0,0,1,3,44.34c-.2-.05-.49-.36-.48-.53s.29-.45.51-.53a5.71,5.71,0,0,1,1.19-.18c2-.21,2.41-.44,2.86-2.54.2-1,.28-1.93.47-2.88a18.48,18.48,0,0,1,.57-1.81c.35.46.52.65.65.87.66,1.15,1.32,2.31,2,3.48a1.46,1.46,0,0,0,2.22.55,10.7,10.7,0,0,0,5.08-5,17.89,17.89,0,0,0,1.41-7.19c.06-2,.16-4,.25-6.11h1l22.29.57c3.87.1,7.73.19,11.6.24.78,0,1.11.32,1.11,1.07s0,1.55,0,2.32c.07,5-.35,10.16,2.55,14.74a4.59,4.59,0,0,0,3.74,2.47,1.33,1.33,0,0,0,1.44-1c.61-1.48,1.32-2.92,2-4.37l.3,0a3.93,3.93,0,0,1,.33,1,30.62,30.62,0,0,1,0,3.2,2.23,2.23,0,0,0,2.24,2.68,1,1,0,0,1,.74.48,1,1,0,0,1-.33.84,2.18,2.18,0,0,1-1,.45c-.82.17-1,.59-.78,1.38a15.65,15.65,0,0,1,.33,1.87c.57,3.17,1.05,6.36,1.72,9.51A116.33,116.33,0,0,1,71.37,74.3c.24,2.78.43,5.56.67,8.34,0,.22.29.42.44.63a3.21,3.21,0,0,0,.5-.59A1.16,1.16,0,0,0,73,82.09ZM30.57,11.36a1,1,0,0,1,.57-.69c1.75-.29,1.75-.26,1.67-2.06a4,4,0,0,1,.06-.54H39a6.16,6.16,0,0,1,.08.62,1.9,1.9,0,0,0,1.59,1.9c.72.11.82.4.79,1,0,.74,0,1.49,0,2.44l-3.8-2.08c-.34-.18-.67-.37-1-.53-.68-.31-1.09,0-1.08.67s-.39.95-1,1.17c-1.31.52-2.6,1.09-4,1.71C30.55,13.64,30.51,12.5,30.57,11.36Zm-11.8,9.79-.06-.24c.49-.22,1-.45,1.48-.65,5-2.07,10.11-4.12,15.15-6.22a3.46,3.46,0,0,1,3.07.05c3.17,1.59,6.35,3.16,9.52,4.74a1.44,1.44,0,0,1,.67.65c-1.86-.8-3.73-1.58-5.58-2.39s-3.73-1.65-5.59-2.51a2,2,0,0,0-1.8,0C30.81,16.74,26,18.9,21.1,21A7.24,7.24,0,0,1,18.77,21.15Zm34.12,1-30.76-.88,0-.26,6.13-2.72c2.54-1.13,5.08-2.26,7.63-3.36a1.33,1.33,0,0,1,.92-.1c2.15.9,4.28,1.83,6.4,2.77s4.26,1.94,6.41,2.88c1.11.49,2.26.91,3.39,1.37Z"/><path class="cls-1" d="M44.16,81.54c0-.36,0-.76,0-1.16q0-10,0-20.09c0-1.78,0-1.82-1.79-1.83-3.4,0-6.8,0-10.19,0-.78,0-1.12.16-1.14,1-.1,4.67-.27,9.35-.41,14-.07,2.49-.16,5-.19,7.46,0,.5,0,1-.61.85-.22,0-.52-.55-.52-.85,0-3.9,0-7.8.07-11.71,0-3.63.08-7.27.07-10.9,0-1,.36-1.44,1.34-1.43C34.52,57,38.28,57,42,57c.71,0,1.43-.06,2.14-.1.95-.05,1.37.24,1.44,1.22s.15,1.95.15,2.92q0,9.74,0,19.48C45.72,81.85,45.5,82,44.16,81.54Z"/><path class="cls-1" d="M20.9,51.07c-.26,2.12-.56,4.24-.76,6.37-.55,6-1.09,12-1.57,18.08-.13,1.67,0,3.36,0,5,0,.52,0,1-.89.79.23-10.46-.5-21,1.07-31.39l.51,0c-.18,2-.4,4-.52,6s-.16,4.1-.19,6.15,0,4.16,0,6.52c.22-2.57.38-4.89.63-7.2.36-3.37.77-6.73,1.2-10.09a5,5,0,0,1,.51-1.52.79.79,0,0,1,.65-.34c.19,0,.43.31.49.52a4.32,4.32,0,0,1,.14,1.19q0,13.88.07,27.76c0,.6.12,1.21.09,1.81,0,.26-.25.5-.39.75-.18-.24-.49-.47-.53-.73a23.39,23.39,0,0,1-.16-2.7Q21.17,65,21.16,52q0-.45,0-.9Z"/><path class="cls-1" d="M8.68,43.26a12.29,12.29,0,0,1,1.24,0l16,.94c.62,0,1.07-.09,1.1-.81.18-3.49,2.56-5,5.47-5.89a11.72,11.72,0,0,1,11.9,2.39,7.37,7.37,0,0,1,2.41,5.22h18.8l.1.55a3.47,3.47,0,0,1-1,.36c-3.16,0-6.32,0-9.48-.07-7.66-.15-15.33-.21-23-.51-7.09-.28-14.16-.82-21.24-1.26-.76,0-1.52-.23-2.28-.35ZM27.75,44l18.11.44a7.51,7.51,0,0,0-3.9-6,12.44,12.44,0,0,0-10.21-.6A6,6,0,0,0,27.75,44Z"/><path class="cls-1" d="M7.58,45.12a2.73,2.73,0,0,1,1-.34c2.58.2,5.15.52,7.73.66,8.7.47,17.39,1,26.1,1.27,7.43.24,14.87.18,22.3.27a2.27,2.27,0,0,1,1.18.36c-19.19.85-38.31-.14-57.42-1.47-.29,0-.56-.29-.85-.45Z"/><path class="cls-1" d="M51.09,82.61c0-.61-.14-1.26-.12-1.9.12-6.14.28-12.29.37-18.43.05-3.66,0-7.33,0-11,0-.32.28-.63.43-.94.15.31.43.62.44.94q.09,4.38.09,8.76,0,10.08,0,20.16c0,.47,0,.94-.05,1.41C52.24,82.25,52,82.65,51.09,82.61Z"/><path class="cls-1" d="M54.51,50.66c1.12,1,.68,2.18.7,3.18.14,8.73.2,17.46.28,26.19a2.56,2.56,0,0,1-.08,1c-.12.27-.43.46-.66.68-.16-.24-.45-.49-.46-.73,0-2.49,0-5,0-7.47,0-7.2-.06-14.39-.08-21.59A5.85,5.85,0,0,1,54.51,50.66Z"/><path class="cls-1" d="M61.22,51.76c1.13,9.46.79,18.7.38,28.12C60.57,73.14,60.15,53,61.22,51.76Z"/><path class="cls-1" d="M11.1,80c-.07-1.29-.22-2.57-.19-3.85.13-5.31.26-10.61.5-15.92.16-3.65.49-7.28.77-10.92a2.82,2.82,0,0,1,.3-.77l.34.08L11.57,80Z"/><path class="cls-1" d="M9.89,49c0,.92,0,1.84,0,2.76-.37,7.56-.77,15.11-1.14,22.67-.09,1.81-.09,3.63-.18,5.45,0,.27-.28.52-.42.78-.13-.26-.38-.52-.37-.77.16-4.67.31-9.34.54-14s.56-9.53.86-14.29c.06-.89.17-1.77.26-2.65Z"/><path class="cls-1" d="M64.35,81.66c0-.32-.06-.64-.06-1-.13-5.95-.19-11.9-.41-17.84-.13-3.55-.54-7.1-.79-10.65,0-.31.22-.64.34-1,.17.3.46.6.48.91.29,4.39.63,8.78.78,13.18.17,5.1.16,10.21.21,15.32a5.86,5.86,0,0,1-.18,1.05Z"/><path class="cls-1" d="M26.14,25.43c0,3.11,0,6.23,0,9.34,0,2.11-.12,4.22-.22,6.33,0,.26-.24.51-.37.77-.14-.25-.42-.51-.41-.76q.17-7.49.42-15c0-.3.27-.59.41-.89Z"/><path class="cls-1" d="M21.29,41.83c0-2.42,0-4.83,0-7.23,0-2.82.15-5.64.25-8.46a7.07,7.07,0,0,1,.31-1.23C22.69,26.49,22,41.34,21.29,41.83Z"/><path class="cls-1" d="M52.79,42.61c-.45-5.45-.06-10.93-.23-16.41.86-.12.78.4.78.85q0,4.09,0,8.17c0,2,0,4,0,6.05,0,.45-.09.9-.14,1.35Z"/><path class="cls-1" d="M48.15,26c.92-.25.78.34.79.79,0,3.19,0,6.39,0,9.58,0,2,.22,4,.34,6,0,.13.07.3,0,.4a4,4,0,0,1-.42.56c-.12-.19-.35-.38-.35-.58q-.23-7.2-.41-14.41C48.14,27.61,48.15,26.84,48.15,26Z"/><path class="cls-1" d="M41.44,14l-3.8-2.08c-.34-.18-.67-.37-1-.53-.68-.31-1.09,0-1.08.67s-.39.95-1,1.17c-1.31.52-2.6,1.09-4,1.71,0-1.31,0-2.45,0-3.59a1,1,0,0,1,.57-.69c1.75-.29,1.75-.26,1.67-2.06a4,4,0,0,1,.06-.54H39a6.17,6.17,0,0,1,.08.62,1.9,1.9,0,0,0,1.59,1.9c.72.11.82.4.79,1C41.41,12.32,41.44,13.06,41.44,14Z"/><path class="cls-1" d="M68.25,83.87c.34.6.72,1,.64,1.15a3,3,0,0,1-1.13,1c-.15.07-.55-.41-.84-.64Z"/></g></g></svg>