<svg xmlns="http://www.w3.org/2000/svg" viewBox="0 0 451.18 90"><defs><style>.cls-1{fill:#f9d84d;}.cls-2{fill:#0a0a0a;}.cls-3{fill:#0f1011;}.cls-4{fill:#111115;}.cls-5{fill:#100d16;}.cls-6{fill:#131a26;}.cls-7{fill:#141931;}.cls-8{fill:#0f0b0b;}.cls-9{fill:#14141c;}.cls-10{fill:#191e20;}.cls-11{fill:#1f2537;}.cls-12{fill:#1d428c;}.cls-13{fill:#1e408f;}.cls-14{fill:#2a304b;}.cls-15{fill:#27282c;}.cls-16{fill:#242530;}.cls-17{fill:#0f0c16;}.cls-18{fill:#20448d;}.cls-19{fill:#212432;}.cls-20{fill:#2c334a;}.cls-21{fill:#222e77;}.cls-22{fill:#111118;}.cls-23{fill:#23294c;}.cls-24{fill:#1d499b;}.cls-25{fill:#313f4b;}.cls-26{fill:#2f2f56;}.cls-27{fill:#181b4f;}.cls-28{fill:#575c69;}.cls-29{fill:#3f4b69;}.cls-30{fill:#474950;}.cls-31{fill:#454a5a;}.cls-32{fill:#353638;}.cls-33{fill:#2c2533;}.cls-34{fill:#323957;}.cls-35{fill:#1f1a3d;}.cls-36{fill:#55575e;}.cls-37{fill:#255a9f;}.cls-38{fill:#22232f;}.cls-39{fill:#4b4e68;}.cls-40{fill:#8d8c93;}.cls-41{fill:#1d1c37;}.cls-42{fill:#4b4f58;}.cls-43{fill:#606369;}.cls-44{fill:#151c57;}.cls-45{fill:#181d34;}.cls-46{fill:#444a54;}.cls-47{fill:#4b4b4f;}.cls-48{fill:#4e5160;}.cls-49{fill:#30323b;}.cls-50{fill:#393c44;}.cls-51{fill:#2b2e38;}.cls-52{fill:#525256;}.cls-53{fill:#17153c;}.cls-54{fill:#2a2c35;}.cls-55{fill:#a4a4a5;}.cls-56{fill:#b3b4b6;}.cls-57{fill:#848586;}.cls-58{fill:#5d5d5c;}.cls-59{fill:#3d3f43;}.cls-60{fill:#3b3c4e;}.cls-61{fill:#111537;}.cls-62{fill:#7b7c7d;}.cls-63{fill:#204185;}.cls-64{fill:#1f4998;}.cls-65{fill:#32558c;}.cls-66{fill:#dddddc;}.cls-67{fill:#e6a916;}.cls-68{fill:#c9c8c6;}.cls-69{fill:#e51210;}.cls-70{fill:#145d29;}.cls-71{fill:#e2e1e0;}.cls-72{fill:#21673b;}.cls-73{fill:#df1414;}.cls-74{fill:#f2f1f0;}.cls-75{fill:#1e702e;}.cls-76{fill:#7f6554;}.cls-77{fill:#e26f13;}.cls-78{fill:#dddcdb;}.cls-79{fill:#e9e8e7;}.cls-80{fill:#2c774b;}.cls-81{fill:#206d31;}.cls-82{fill:#1d2128;}.cls-83{fill:#bba332;}.cls-84{fill:#e6e6e5;}.cls-85{fill:#c4c3c2;}.cls-86{fill:#1e1e1f;}.cls-87{fill:#dfdedc;}.cls-88{fill:#266c40;}.cls-89{fill:#2e3b29;}.cls-90{fill:#cecdca;}.cls-91{fill:#b9b9b6;}.cls-92{fill:#b3b1b1;}.cls-93{fill:#b7b6b4;}.cls-94{fill:#cccbca;}.cls-95{fill:#1f0909;}.cls-96{fill:#aa9385;}.cls-97{fill:#a7a7a4;}.cls-98{fill:#c9c8c5;}.cls-99{fill:#1c4829;}.cls-100{fill:#207d3a;}.cls-101{fill:#505254;}.cls-102{fill:#766352;}.cls-103{fill:#e5e6e5;}.cls-104{fill:#d1d1cf;}.cls-105{fill:#3e3a36;}.cls-106{fill:#766453;}.cls-107{fill:#756c63;}.cls-108{fill:#919190;}.cls-109{fill:#989695;}.cls-110{fill:#b8b7b5;}.cls-111{fill:#846b60;}.cls-112{fill:#9d1b1e;}.cls-113{fill:#3c3833;}.cls-114{fill:#d7d7d4;}.cls-115{fill:#635d58;}.cls-116{fill:#9c9b99;}.cls-117{fill:#d5d4d3;}.cls-118{fill:#888785;}.cls-119{fill:#2e2e32;}.cls-120{fill:#2d2e34;}.cls-121{fill:#1a3d25;}.cls-122{fill:#404039;}.cls-123{fill:#334b36;}.cls-124{fill:#d8d9d9;}.cls-125{fill:#897d68;}.cls-126{fill:#656f3f;}.cls-127{fill:#bcbdbb;}.cls-128{fill:#8c6f66;}.cls-129{fill:#d6d6d4;}.cls-130{fill:#c1c1c0;}.cls-131{fill:#5d5e5f;}.cls-132{fill:#43654f;}.cls-133{fill:#48463c;}.cls-134{fill:#97816d;}.cls-135{fill:#777875;}.cls-136{fill:#577163;}.cls-137{fill:#a6907d;}.cls-138{fill:#5e564c;}.cls-139{fill:#626161;}.cls-140{fill:#b6b3b3;}.cls-141{fill:#3d3e41;}.cls-142{fill:#696056;}.cls-143{fill:#5c5949;}.cls-144{fill:#383b3b;}.cls-145{fill:#613712;}.cls-146{fill:#696759;}.cls-147{fill:#5e5e5d;}.cls-148{fill:#525353;}.cls-149{fill:#a7a8a7;}.cls-150{fill:#c09295;}.cls-151{fill:#45453c;}.cls-152{fill:#78987d;}.cls-153{fill:#4a4b41;}.cls-154{fill:#aaadad;}.cls-155{fill:#3f5a46;}.cls-156{fill:#80b187;}.cls-157{fill:#93625e;}.cls-158{fill:#9ea2a4;}.cls-159{fill:#afadab;}.cls-160{fill:#9db3a1;}.cls-161{fill:#c6c5c4;}.cls-162{fill:#b45551;}.cls-163{fill:#7b7d71;}.cls-164{fill:#3e3e41;}.cls-165{fill:#e4e4e2;}.cls-166{fill:#aeadad;}.cls-167{fill:#d7d6d6;}.cls-168{fill:#dbdad9;}.cls-169{fill:#29292b;}.cls-170{fill:#dadad8;}.cls-171{fill:#c1c1c2;}.cls-172{fill:#e9e9e9;}.cls-173{fill:#cbcbc9;}.cls-174{fill:#cac9c8;}.cls-175{fill:#262624;}.cls-176{fill:#c4c3c0;}.cls-177{fill:#413933;}.cls-178{fill:#cbcaca;}.cls-179{fill:#635a4f;}.cls-180{fill:#e2e2e0;}.cls-181{fill:#343435;}.cls-182{fill:#dbdbda;}.cls-183{fill:#7e6a5a;}.cls-184{fill:#6e5f51;}.cls-185{fill:#d5d5d3;}.cls-186{fill:#959695;}.cls-187{fill:#c4c4c3;}.cls-188{fill:#5f5c4f;}.cls-189{fill:#816c60;}.cls-190{fill:#4c4e54;}.cls-191{fill:#828383;}.cls-192{fill:#82746c;}.cls-193{fill:#8a8b8b;}.cls-194{fill:#584f4b;}.cls-195{fill:#4c4f4e;}.cls-196{fill:#685f57;}.cls-197{fill:#9e9f9f;}.cls-198{fill:#a2a2a2;}.cls-199{fill:#84715e;}.cls-200{fill:#2a5592;}.cls-201{fill:#7a6b5a;}.cls-202{fill:#88776a;}.cls-203{fill:#686765;}.cls-204{fill:#727376;}.cls-205{fill:#cccccb;}.cls-206{fill:#444744;}.cls-207{fill:#717372;}.cls-208{fill:#9c9ea0;}.cls-209{fill:#cecdcc;}.cls-210{fill:#96938d;}.cls-211{fill:#95979a;}.cls-212{fill:#dededd;}.cls-213{fill:#eceded;}.cls-214{fill:#2f3236;}.cls-215{fill:#939497;}.cls-216{fill:#a1a2a3;}.cls-217{fill:#a5a6a7;}.cls-218{fill:#cecfce;}.cls-219{fill:#312f2d;}.cls-220{fill:#272830;}.cls-221{fill:#b8babc;}.cls-222{fill:#7a7474;}.cls-223{fill:#e0e0e0;}.cls-224{fill:#746961;}.cls-225{fill:#927f71;}.cls-226{fill:#76665c;}.cls-227{fill:#6d625a;}.cls-228{fill:#6e655c;}.cls-229{fill:#70726a;}.cls-230{fill:#6d645e;}.cls-231{fill:#a2aeac;}.cls-232{fill:#d7d7d6;}.cls-233{fill:#8a786d;}.cls-234{fill:#545651;}.cls-235{fill:#d2d4d5;}.cls-236{fill:#424847;}.cls-237{fill:#1b3587;}.cls-238{fill:#0f0d39;}.cls-239{fill:#1b3389;}.cls-240{fill:#18347e;}.cls-241{fill:#1a3f93;}.cls-242{fill:#2955a1;}.cls-243{fill:#18236b;}.cls-244{fill:#1c2a54;}.cls-245{fill:#e4e3e3;}.cls-246{fill:#f5f5f5;}.cls-247{fill:#68615d;}.cls-248{fill:#a9acad;}.cls-249{fill:#54584f;}.cls-250{fill:#1f4e9e;}.cls-251{fill:#1b338a;}.cls-252{fill:#1b3889;}.cls-253{fill:#bbbab8;}.cls-254{fill:#bfbdbc;}.cls-255{fill:#dad9d7;}.cls-256{fill:#626263;}.cls-257{fill:#969899;}.cls-258{fill:#abadaf;}.cls-259{fill:#525758;}.cls-260{fill:#e3e2e3;}.cls-261{fill:#1c448f;}.cls-262{fill:#182b69;}.cls-263{fill:#0e0e0e;}.cls-264{fill:#0e0b16;}.cls-265{fill:#131552;}.cls-266{fill:#1c3e91;}.cls-267{fill:#1c3f92;}.cls-268{fill:#cbcac9;}.cls-269{fill:#eeeded;}.cls-270{fill:#d8d8d7;}.cls-271{fill:#836f65;}.cls-272{fill:#cbcbcc;}.cls-273{fill:#c5c4c3;}.cls-274{fill:#f0f1f0;}.cls-275{fill:#5d5345;}.cls-276{fill:#c6c7c7;}.cls-277{fill:#848583;}.cls-278{fill:#616265;}.cls-279{fill:#89796c;}.cls-280{fill:#3c3e41;}.cls-281{fill:#2e2f33;}.cls-282{fill:#1b1409;}.cls-283{fill:#171a23;}.cls-284{fill:#3d3d3d;}.cls-285{fill:#100f10;}.cls-286{fill:#1b1b1c;}.cls-287{fill:#989797;}.cls-288{fill:#2e2e30;}.cls-289{fill:#cfd0d0;}.cls-290{fill:#bab9b8;}.cls-291{fill:#d1d1d2;}.cls-292{fill:#0e0c0c;}.cls-293{fill:#96989f;}.cls-294{fill:#232323;}.cls-295{fill:#90766a;}.cls-296{fill:#878a8d;}.cls-297{fill:#5d615f;}.cls-298{fill:#636670;}.cls-299{fill:#295aa1;}</style></defs><title>Risorsa 3</title><g id="Livello_2" data-name="Livello 2"><g id="Livello_1-2" data-name="Livello 1"><rect class="cls-1" width="451.18" height="90"/><path class="cls-2" d="M378.66,27c-.12-2.14-.5-4.3.35-6.38a1.14,1.14,0,0,1,.85-.3c.31.21.59.36.55-.25.63-.66,1.28-1.2,2.2-.47a1.7,1.7,0,0,1-.11,1.27,4.47,4.47,0,0,0-.21.93,5,5,0,0,0,.55,2.52c.15.14.3.44.51.21s0-.57,0-.87c-.22-1.43-.55-2.92,1.67-3h.62c.67-.11.91-1.16,1.78-.85.13,1.4.5,2.46,2.21,1.45.84-.5,2.06.22,2.65-1.51.42-1.23,1.25,1,2.29.8l.06-2c1.29-.26,1.11,1.07,1.71,1.56.8,1.07,1.93,2,1.93,3.48a3.84,3.84,0,0,1-.12,1.49,2.31,2.31,0,0,1-.6.9c-.68.43-1.52,1.14-2.12.26-.74-1.06.62-1.39,1.09-2-2.18,1.35-2.81,1-3.11-1.51.11-.12.1-.22,0-.26a.77.77,0,0,1-.07.4,15.65,15.65,0,0,0,.66,4.39,1.79,1.79,0,0,1-.14.91,3,3,0,0,1,.48-.39,3.7,3.7,0,0,1,2.3.22c.26.2-.07-.07.21.1s.78,1,.88-.15a2.94,2.94,0,0,1,1.31-.48A10.68,10.68,0,0,1,400,27.4a5.9,5.9,0,0,1,1.48,0,2.38,2.38,0,0,1,2,2,1.07,1.07,0,0,1-.41.9c-.66.2-1.42-.31-2,.27a2.57,2.57,0,0,1-.56.26,1.27,1.27,0,0,1-1.15-.2c-.67-1.06-.94-.18-1.3.28a.72.72,0,0,1-.29.33.47.47,0,0,0,.3-.33c.33-.51.71-.78,1.27-.3.43.79-.2,1.29-.45,2,.45-.83,1.2-.83,2-.75a13.21,13.21,0,0,1,1.91.34,3.18,3.18,0,0,1,.59.2,4,4,0,0,1,.51.33,3.38,3.38,0,0,0,.83.37c.95.29,1.95.09,2.9.31a1.86,1.86,0,0,1,1.2,1.21,4.55,4.55,0,0,0,.33,1.33,12.08,12.08,0,0,0,.29,1.19,9.12,9.12,0,0,1-.21-5.41,3.7,3.7,0,0,1,.21-.65c.54-1,1.39-1.73,1.61-2.87a2.63,2.63,0,0,1,2.22-.79,4.18,4.18,0,0,1,2.91,1.57c.16.13.34.39.54.28s.18-.49,0-.75c-2.37-.9-.74-2.55-.75-3.89,0,0-.12-.12-.19-.13a.52.52,0,0,0-.24.07,2.36,2.36,0,0,1-.57.24l-.33,0a1.63,1.63,0,0,1-.74-1.15,4.15,4.15,0,0,1,.48-2.94c.41-.25.82-1.24,1.26,0,.16.82.39,1.53,1.33.61.52-.5.34-1.41,1-1.84a1.83,1.83,0,0,1,.47-.46.32.32,0,0,1,.37-.16c1.61,0,1.92.59,1.47,2.63a1.91,1.91,0,0,1-.61.8c-.88.11-.83-.49-.82-1.06a1.14,1.14,0,0,1,.13-.6,1,1,0,0,0-.16.59c0,1.49.79,1.85,2.09,1.53a15.37,15.37,0,0,0,1.19-1,10.85,10.85,0,0,1,2-1.16,1.45,1.45,0,0,1,.69,0c.67.51.29,1,0,1.56-2.42,2.23-1.94,5.12-1.85,7.78.21-2.23-.82-4.85,1.44-6.81.61.08.81.52.94,1a14.56,14.56,0,0,0,.07,7,1.67,1.67,0,0,1-.34,1.28,1.69,1.69,0,0,1-.46.35,2,2,0,0,0-.74.34,3.62,3.62,0,0,0-.2.48,4.23,4.23,0,0,0-.1.46c.26.13.54-.11.8,0,1.4,1.61-.19,2.4-.93,3.42a6.82,6.82,0,0,1-.8,1.51c-1.59.42-1.81-.77-2.14-1.81a1,1,0,0,1,.23-.31,2.22,2.22,0,0,0-.31.22c-1.82-.43-1.23,1.69-2.22,2.1.07.51.34,1,.37,1.48a1.52,1.52,0,0,1-.25.94.8.8,0,0,1-.63.13c-.47-.33-.68-.88-1.06-1.29-.91-.86-1.74-1.45-1.86.52-.05.87,0,1.77-1,2.22a1.81,1.81,0,0,1-2-1.21c-.33-1.28-1.77-1.18-2.49-2a1.89,1.89,0,0,0-1.74-.57,1.94,1.94,0,0,0-.45.31c-.23.31-.2.71-.36,1-.42.48-.62,1.33-1.57.94a4.1,4.1,0,0,0-.86-.68,2.71,2.71,0,0,0-.86.2,12,12,0,0,0-1.7.6.89.89,0,0,1-.54-.28c-.08-.21-.19-.42,0-.63-.29,0-.2.25-.24.39-.15.52-.38,1.06.18,1.5a1.75,1.75,0,0,1,.28.59,3.68,3.68,0,0,1-.49,2.27c-.42.36-.83.18-1.24,0-.6-.44-1.08-1-1.68-1.47a12.53,12.53,0,0,1-.83-.95,8.65,8.65,0,0,1-1.34-2.15c-.14-.29-.28-.57-.41-.86-.36-.59-.39-1.43-1.25-1.62a3.94,3.94,0,0,0-1,.48,6.92,6.92,0,0,1-1.81.93.34.34,0,0,0-.28.38,6.77,6.77,0,0,1-.18,2,.83.83,0,0,1-.79.55,14.08,14.08,0,0,1-3-5.33,12.25,12.25,0,0,0-1-2.28,7.87,7.87,0,0,1,1.08,4.29,1.21,1.21,0,0,1-.61.8c-2.5.08-1.13,2-1.51,3.15a2.7,2.7,0,0,1-.26.58,4.9,4.9,0,0,0-.46,2.09,7.34,7.34,0,0,1-.25,1,2.38,2.38,0,0,1-.31.62c-2.35.62-1.78-.92-1.6-2.17-.18-1.62-1.47-3-1.13-4.73.14-.41.25-.85.84-.77.21.07.41.28.66.11a1.88,1.88,0,0,0-.34-.67,1.2,1.2,0,0,0-.46-.25c-.49,0-1,.34-1.45.07a1.5,1.5,0,0,0-1.45-.92c-.79-1.55.19-2.11,1.42-2.52a1.37,1.37,0,0,1,1.08.51,7.46,7.46,0,0,1-1.56-4.57l.08-.34.19-.29a1.32,1.32,0,0,1,.64-.19c.49.05.85.43,1.41.53-.74-.52.62-2.17-1.23-2a.76.76,0,0,1-.68-.6,4.52,4.52,0,0,1,1-1.88c.75-.95-.62-.16-.46-.58-.21-.22.19-.25-.1-.12-.08,0,.11.22.15.37a3.12,3.12,0,0,1-1.29,2.42C378.1,28.94,378.62,27.89,378.66,27Z"/><path class="cls-3" d="M399.81,45.32l.95.4a.7.7,0,0,1,.2.91c-.82.92-.46,1.78.15,2.62a2.11,2.11,0,0,1-.26-2.51c1.5-.14,1.65,1.33,2.45,2a16,16,0,0,0,.87,1.79c1,1.4,1.81,1,2.63-.16a3.29,3.29,0,0,1,.5-.45l.3-.17a2.56,2.56,0,0,1,1.34-.11.84.84,0,0,1,.45.46c.21,1.36-1.17,2-1.38,3.22s.47,1.73,1.63,1.73a7.47,7.47,0,0,0,2.77-.47c1.07-.53,2.18.1,3.25-.11.7-.23.92-1.2,1.79-1.18a1.37,1.37,0,0,1,1.22,1c.58.26-1.08.82.15,1,.49,0,1.07,0,1.22.54.2.66-.6.56-.89.87-2.29,1.41-4.48,3-7.32,3.16-1,.05-1.13.85-1.13,1.61a22.16,22.16,0,0,0,.2,2.25,1.61,1.61,0,0,1-2.2-.82c-.9-1.77-2.19-1.75-3.76-1.28a9.12,9.12,0,0,1-1.46.2c-.83.17-.27,1.71-1.49,1.5-.2-1.86-1.35-1.28-2.25-.77-1.26.72-2.44,1.59-3.63,2.43a5.06,5.06,0,0,1-2.07,1.1c-.52-.56-.12-.93.11-1.32.66-1.14.25-1.62-1-1.72a4.68,4.68,0,0,1-2.66-1c-.47-.48-1.2.18-1.65-.37-.92-1.8-2.12-1.69-3.53-.56a11.69,11.69,0,0,1-4.47,2.06c1.33-1.61,2.67-3,2.9-5.18.08-.77.24-1.34-.28-2-3.44-4.21-4.7-9.23-5.42-14.46a15,15,0,0,0-.2-3c-.22-1.28.33-2.43.58-3.63.83-1.59.34-3.21.11-4.83a7.58,7.58,0,0,1,.13-3.08c.33.71-.2,2,1.28,1.93a.26.26,0,0,1,.44,0l.62.42a1.78,1.78,0,0,1-.39,2l-.24,0h-.25l0,.55c-.48,1.52.65,2.8.61,4.25-1,.4-2.18.65-1.56,2.19.49.1.67.58,1,.84.9.58,1-1.7,2.06-.57-.12.22-.37.5.19.4.38.59,1.32,1,.59,1.93a1.39,1.39,0,0,1-1-.37c-.33-.43-.45-.15-.56.16l-.18.11h-.21c-.28.34.14.6.11.92.56,1.33.56,2.89,1.72,3.94,0,.61-.93,1.22,0,1.83.47.32.69,0,.87-.41,1.1-1,.1-2.23.49-3.3l.65-.14c1-1,.57-2.6,1.57-3.59l.42-.55a1,1,0,0,1,1.33.65c.5,1.44,1.6,2.53,2.17,3.91a7.9,7.9,0,0,0,.86,1.83,7.62,7.62,0,0,1,.42.9c.37.79.52,1.64.82,2.45l.31.52a9.09,9.09,0,0,1,.76,1.26c.1.15.21.3.31.45a4.26,4.26,0,0,0,.47.59c-.1-.75-.9-1.05-1.05-1.75-.5-.84-.89-1.69-.08-2.57,2.42.36,3.08-.2,3-2.55a12.31,12.31,0,0,0-2.07-3.39,5.15,5.15,0,0,1-1.08-3.3l.88-.66c1.12.36,1.06,1.66,1.84,2.29l.55.52c-.19,1.13,0,2,1.35,2.26a1.28,1.28,0,0,1,.52,1.06C399,44.13,398.19,46.37,399.81,45.32Z"/><path class="cls-4" d="M424.19,32.6a1.7,1.7,0,0,0,.92-1.15c1-.74.82-1.4.21-2.42-1.2-2-.42-3.75,1.87-4.72a4.32,4.32,0,0,0,1.06-.37,1,1,0,0,0,.38-.59,1,1,0,0,0-.1-.46c-1.63-.85-2.37,1.06-3.68,1.17l-.42-.88c-.78-.63.44-1.06.16-1.65.08-.29.53-.63-.09-.85-.36-.38-.9-.69-.45-1.34A5.34,5.34,0,0,1,430.54,22c2.05-1,3-3.26,4.91-4.44,1.07-.05,1.49.8,2,1.47-.43,2-1.45,3.69-2.08,5.57a11.43,11.43,0,0,1-.58,1.16c-.14.28-.3.56-.46.84a5,5,0,0,1-.36.52c-.61.65,0,1.41-.19,2.1-.55,1.31-1.48,1.38-2.6.79-.34,0-.69,0-.86.4,1-.09,2,.21,2.95.09a1,1,0,0,1,.46.47,1.18,1.18,0,0,1-.24,1.27,1.33,1.33,0,0,1-.63.2,5.31,5.31,0,0,0-2.81.46,10.6,10.6,0,0,0-1.6.54c-.58.36.18.37.24.58,0,1.31,1.14.25,1.5.78a.92.92,0,0,1,.32.53,8,8,0,0,0-.19,1.86c-.17.58-.48,1-1.14,1-.18-.11-.31-.31-.53-.39,0,.25.21.46.17.73a1,1,0,0,1-.52.41l-.34,0-.34-.07a2.82,2.82,0,0,1-.61-.34,3.93,3.93,0,0,1-.73-.73,2.84,2.84,0,0,0-1-1,6.54,6.54,0,0,1-.75,3.22c-.14.78.52,2.18-1.27,1.71-.25-.18.12.09-.15-.1.07,0,.1.08.16.12a1.26,1.26,0,0,1,.25.51,2.14,2.14,0,0,1-.7,1.85c0,.13-.44-.12-.27.26a.59.59,0,0,1-.11.45,1.26,1.26,0,0,1-1,.54,2.23,2.23,0,0,1-.92-.32,1.45,1.45,0,0,1-.58-.81,4.11,4.11,0,0,1,.28-2,8.14,8.14,0,0,0,.23-1.28c.34-3.19-2.09-1.35-3.25-1.79.15-1,.15-1,1.61-1.41-.48-.14-.92-.25-1.36-.39,0,0-.05-.14-.12-.37,1.11-.19,2.14-.79,3.29-.16l0,0a2.68,2.68,0,0,0,1.7,1.75q1.06-.56.28-1.47c.49-1,3-1.15,1.2-3-.46.17-.67.06-.53-.46l0,0C423.65,33.35,423.74,32.83,424.19,32.6Z"/><path class="cls-5" d="M377.52,69.84c-.65-1-.65-1.15.46-1.18a33.88,33.88,0,0,0,6.21-.6c1.51-.86,1.51.68,2.08,1.32,3,.59,3.89.23,4.38-1.86l.24,0c.47-.08.42,1.43,1.21.4-.19,1,.44,1.44,1.17,1.83a1.52,1.52,0,0,1,.45.74c.29.67,1,.5,1.52.77a.71.71,0,0,1,.33.54.62.62,0,0,1-.46.44c-.8.1-1.6.16-2.4.24a2.81,2.81,0,0,1-.69,0,1.33,1.33,0,0,1-.8-.6c-.06-.14-.07-.36-.18-.43-.41-.26,0,.17-.15.19.26,1.13,1.16.84,1.91.86l2.39-.24c1.11-.66,2.55-.47,3.54-1.42a1,1,0,0,1-.22-.47,1.94,1.94,0,0,1,.19-.82,2.24,2.24,0,0,1,.82-.86c.58-.3,1-.49,1,.52s.55.38.91.15a1.62,1.62,0,0,1,1.77-.19.51.51,0,0,1,.38,0c1.32,1.43,2.69,1,4,0a10.76,10.76,0,0,1,1.15-.81l.61-1.53c.26,1.06.93,2,.65,3a3,3,0,0,0,2.28-.07c4.82-1.2,4.2-.81,4.09-5.15,0-.92,0-.92.83-2.19a19.91,19.91,0,0,1,.16,5.89,1,1,0,0,1,.24,1.06,2.76,2.76,0,0,1-1.52,1.1,17.49,17.49,0,0,0-2.45.68,20.34,20.34,0,0,1-7.1,1.91,5.16,5.16,0,0,0-1.14.71c-1.06.28-1.9,1.2-3.1,1.09a24.12,24.12,0,0,1-4.73-.08c.08-1.77,1.8-1.41,2.72-2.09a4.09,4.09,0,0,1,1.38-.31,4.62,4.62,0,0,1,1.54-.16c-.81-.26-1.34.24-1.95.19a4.16,4.16,0,0,0-1.75.59c-3.5,1.41-7.18,1.4-10.87,1.35a1.05,1.05,0,0,1-.78-.69,1.93,1.93,0,0,1-.06-.63,2,2,0,0,1,.3-.75.91.91,0,0,0,.13-.37.34.34,0,0,0-.31-.2l-.46,0a2.89,2.89,0,0,1-.79-.07,2.74,2.74,0,0,1-.55-.23c-.72-.43-1.62-.49-2.25-1.11-1.5-.86-3.06,0-4.59-.15a8.59,8.59,0,0,1-1-.2A2.59,2.59,0,0,1,377.52,69.84Z"/><path class="cls-6" d="M434,26.68a1,1,0,0,1,.22-1,1.09,1.09,0,0,0,1-.61c.84-1.86,1.13-3.93,2.34-5.63a.45.45,0,0,1,.59,0c.43,2-.7,3.92-.35,5.93-.38.66.1,1.6-.68,2.14a81.27,81.27,0,0,1-11,22.11,8,8,0,0,0-1.2,2.65,6.2,6.2,0,0,1-5.77,4.52c.06-.35.71-.51.45-.86-.14-.18-.7,0-1.07,0-.17-1,.67-1,1.2-1.25a3.33,3.33,0,0,0,2.07-2.24,2.24,2.24,0,0,0-.36-1.38.63.63,0,0,1,.19-.56c.18-.29,1.39.05.52-.87a1,1,0,0,1,.2-.61c.8-.25,1.64-.44,1.68-1.53.8-.57,2-.79,2.08-2.05a2.3,2.3,0,0,1,.41-.53c1.44-1.83,3.2-3.56,1.72-6.19a.39.39,0,0,1,.29,0c.26-.2.4-.55.77-.6a1.77,1.77,0,0,0,.79-1.11c1.74-1.09,2.3-2.93,3-4.69a1.14,1.14,0,0,0,.43-1.1c.3-.56,1-1,.34-1.79l-.17-.22c-.29-.85-1.93-1.88.32-2.38a.82.82,0,0,1,.29.39c0,.12.15.3.22.26s.09-.18-.11-.17A3.21,3.21,0,0,0,434,26.68Z"/><path class="cls-7" d="M437,73.75c.45,1.09.2,1.7-1.09,1.66a52.92,52.92,0,0,1-7.19-.23c.41-.7,1.18-.76,1.83-1,1-.21,1.82-.65,1.57-2-1.22-.3-2.31.75-3.52.34a2.18,2.18,0,0,1-1.19-.68c-.07-1.41,1.26-.87,1.85-1.32-1.13,0-2,.87-3.1,1.08a.77.77,0,0,1-.45-.45c.12-.85-.89-.74-1.12-1.29a.83.83,0,0,1,.24-.93c2.06.7,3.78-.73,5.7-.91.67-.06.57-.69.68-1.13a33.83,33.83,0,0,0,.41-4.61,8.06,8.06,0,0,1,.83,6l4.8-.47c.64,1.5-1,3.18.1,4.74-.51.47-1.16.34-1.84.42C436,73.36,436.66,73.27,437,73.75Z"/><path class="cls-8" d="M398.11,18.33a23.26,23.26,0,0,1,3.53,2.94l2-1.08c.38-.28.6-.07.77.26a1.53,1.53,0,0,1-.59,1.13.89.89,0,0,0-.19,1.12c.32.5.65.73,1,.07a1.59,1.59,0,0,1,1-.91,1.17,1.17,0,0,1,.9.65c.17.24.37.21.5,0s0-.54-.21-.78a1,1,0,0,1,.58-1.53c.93-.35.86.72,1.33,1l0,0c.28.35.78.16,1.08.45a1.07,1.07,0,0,1,.14.56,2.8,2.8,0,0,0,.09.84,1.08,1.08,0,0,1-.19.8,3.33,3.33,0,0,0-.33.77c0,.2-.08.39-.12.59a15.69,15.69,0,0,0-.6,3.47,1.88,1.88,0,0,1-.23.65,1,1,0,0,1-.91.45c-.93-.62-.79-1.63-.93-2.53-1.08-1.37-1.33.39-2,.53a1.34,1.34,0,0,1-2,.06,2.58,2.58,0,0,0-.78-.43,3.82,3.82,0,0,0-.61,0,1.82,1.82,0,0,1-1.54-.33c-.13-.91.7-1.05,1.18-1.47,1.08-.8.14-1.36-.21-2-.88-1.68-2.86-2.47-3.49-4.35C397.4,18.74,397.37,18.19,398.11,18.33Z"/><path class="cls-9" d="M430.82,74.37c-.47.85-1.39.54-2.08.8l-.2.06-.18-.1c-1.37-.42-2.74.37-4.11,0l-3,0c-.74-.1-2.35.3-.7-1.2-1.47-1.67,0-2.85.67-4.18a3.88,3.88,0,0,1,.38-.86,3.54,3.54,0,0,1,1.19-.86,1.25,1.25,0,0,0,.39-.4c.84-.7,1-.56,1.72,1.25l0,1c0,.65.69.55,1,.82l.08.59a.59.59,0,0,1-.15.37c.25.18.39-.14.61-.14a.93.93,0,0,1,1.06.16c.41,0,.83,0,1.08.43l-.19.27A9.25,9.25,0,0,1,425,73.73s-.07.16-.07.16a1.12,1.12,0,0,0,.2,0c1.22-.08,2.15-.92,3.28-1.18a2.42,2.42,0,0,1,.95,0,1,1,0,0,1,.45.35c.11.19-.17.26-.14.36s.17.12.28-.06a1.17,1.17,0,0,1,.83.68Z"/><path class="cls-10" d="M382.49,19.89c-.84-.47-1.39,0-1.94.57a.24.24,0,0,1-.38.11l-1.16.06c.6-1.07.2-1.77-.78-2.35s-1.53-1.3-.72-2.38a1.66,1.66,0,0,1,2.74-.17,5.92,5.92,0,0,0,4.31,2c1.17.13,2.57.49,2.82,2.11-.8.22-.64,1.3-1.38,1.57a3.92,3.92,0,0,1-.74-1C384.49,19.39,383.39,20.19,382.49,19.89Z"/><path class="cls-11" d="M428.17,49.55c.66,2.26,0,4.54.21,6.79a57.44,57.44,0,0,1-.07,6.31c0,.7-.13,1.3-1,1.36a1.25,1.25,0,0,1-1.51-1.23,9.1,9.1,0,0,1,.13-3.64,26.25,26.25,0,0,0,1.37-8.86C427.28,50,427.43,49.66,428.17,49.55Z"/><path class="cls-12" d="M421.88,69.79a4.51,4.51,0,0,1-.42.84c-1.69,2.14-1.69,2.13.69,3.34-.18.63-.76.44-1.18.57-.21.06-.23.07-.1.35.06.12.23.19.34.28a25.36,25.36,0,0,1-5.57-.1c0-.7.83-1,1-1.64-.21-.74-1.16-.42-1.49-1a1.06,1.06,0,0,1,.19-.72C417.23,70.15,419.31,69.12,421.88,69.79Z"/><path class="cls-13" d="M389,71.57c.1.35-.1.51-.39.61a6.32,6.32,0,0,0-.5.41l-.06.08a.91.91,0,0,0,.06,1c2.89.77,5.71.07,8.53-.45,1.1-.2,2.19-.49,3.29-.73.47-.22.58,0,.47.41l-2.82,1.89a73,73,0,0,1-10.29-.17,1.36,1.36,0,0,1-.51-.16.83.83,0,0,1-.25-.46,6.51,6.51,0,0,1,.12-.78c0-.26,0-.52.05-.78a1.94,1.94,0,0,1,.11-.51.72.72,0,0,1,.38-.34,2.59,2.59,0,0,0,.75-.2l.58-.07A3.55,3.55,0,0,1,389,71.57Z"/><path class="cls-14" d="M434.24,48.9c-.05-4,.5-7.9.33-11.89a3.78,3.78,0,0,1,.94,3.08,23.2,23.2,0,0,0,.64,6.83,4.16,4.16,0,0,1-.11,2.85.85.85,0,0,1-.64.18.73.73,0,0,1-.35-.54,12.3,12.3,0,0,0,.31-2.83c-.16,1.07.08,1.82-.5,2.32A.56.56,0,0,1,434.24,48.9Z"/><path class="cls-15" d="M404.24,20.6l-.63-.41a7.38,7.38,0,0,1,.68-.67c3.07-2.34,3.45-2.19,4.51,1.69-.58.06-.71-1.17-1.5-.52-.54.44,0,.81.06,1.22.09.71-.06,1.18-.93.95l-.58-.94c-.35-.28-.7,0-1,0a1.06,1.06,0,0,1-.52-.21C404.05,21.35,404.32,21,404.24,20.6Z"/><path class="cls-16" d="M424.07,20.82a2.42,2.42,0,0,1-1.78,1.11c-.68-.56-.69.13-.89.48a1,1,0,0,1-.53.3,1.27,1.27,0,0,1-.79-.47c-.18-.36-.07-.83-.46-1.1a1.54,1.54,0,0,0-.8-2.39,3.12,3.12,0,0,1,4.05.13c.16.17.42.27.42.56l0,0C424,19.69,423.93,20.3,424.07,20.82Z"/><path class="cls-17" d="M415.26,72.59c.84-.08,1.73-.5,2.57.4-.62.82-.83,2-2.19,2.09l-5.07-.14c-.08-1.51,1.38-1.09,2.06-1.65l.58-.25c.18-.09.37-.17.57-.24A3,3,0,0,1,415.26,72.59Z"/><path class="cls-18" d="M413.32,73.49c-.78.74-2,.61-2.75,1.45a17.62,17.62,0,0,1-5.54-.1c-.69-.81-.69-.81.69-1.37,1.89-.64,3.88-.49,5.81-.8a7.51,7.51,0,0,0,1.09-.25,1.65,1.65,0,0,1,1.08.07.43.43,0,0,1,.18.39q0,.22-.09.23h0A.8.8,0,0,1,413.32,73.49Z"/><path class="cls-19" d="M379.54,60.16c-.14,1.87-.27,3.73-.44,5.6-.05.54-.09,1.29-.87,1.2s-.72-.8-.63-1.37c.38-2.24.79-4.47,1.19-6.71C380,58.71,379.46,59.63,379.54,60.16Z"/><path class="cls-20" d="M403.23,69.13l-1.77.19a14.07,14.07,0,0,1,.52-6c.69-.3.16-1.82,1.49-1.5C403.32,64.29,402.28,66.68,403.23,69.13Z"/><path class="cls-21" d="M408.71,68.3c-.94,3.33-3.71,1.77-5.69,2.3-.5-.92.53-1,.59-1.48A9.52,9.52,0,0,1,408.71,68.3Z"/><path class="cls-22" d="M387,72.33l.09.87a1.73,1.73,0,0,0-.25.52l-.07.54a.6.6,0,0,1-.4.34c-.6-.19-.79-2.1-2-.38a6,6,0,0,1-3.35.36c-.08-1.44,1.32-1.31,2-1.9a20.18,20.18,0,0,1,1.76-1.45,1.81,1.81,0,0,1,1-.2,1.62,1.62,0,0,1,.6.29l.73.05a.25.25,0,0,1-.12.37l-.06.05a.36.36,0,0,0-.07.36Q387,72.33,387,72.33Z"/><path class="cls-15" d="M409.88,22.14c-.2-.5-1-.33-1.08-.95,1.87-.31,3.29-1.64,5-2.27s2.09-.51,1.81,1.67c-.41-.48-.64,0-.92.17C413,21,411.63,22.15,409.88,22.14Z"/><path class="cls-23" d="M433.22,49c-.22,3.32-.39,3.78-2.56,6.75-.54-1.68.42-3.07.42-4.54a.36.36,0,0,1,.44-.13c.78-.5.15-1.73,1.09-2.15A.57.57,0,0,1,433.22,49Z"/><path class="cls-24" d="M383.61,73.06c-.66.82-2,.51-2.55,1.52l-2.27-.14c-.8-.43-1.09-1-.33-1.69C380.2,72.45,382,71.17,383.61,73.06Z"/><path class="cls-25" d="M438.17,19.39l-.42,0a.62.62,0,0,1-.44-.33c-1.31-.17-1.31-.17-1.87-1.52.56-1.17,1.87-1.17,2.94-1.92Z"/><path class="cls-26" d="M386.41,71.32l-.54,0c-2.18.29-4.34.75-6.53,1a3.38,3.38,0,0,1-.73.13.81.81,0,0,1-.64-.31c-.22-.42-.4-.84.05-1.21s.24-.58-.13-.79l0-.31h1.1c1.72,1.11,3.55,0,5.32.29C384.64,71,386.33,69.83,386.41,71.32Z"/><path class="cls-27" d="M379.54,60.16c-.18-.47,0-1.14-.75-1.28l-.06-5.73.88,0A22.34,22.34,0,0,1,379.54,60.16Z"/><path class="cls-28" d="M435.86,59.94c1.19.35,1,1.43,1,2.23a20.3,20.3,0,0,1-.53,5.3c-1.16-.1-.77-.83-.7-1.43.18-1.77.91-3.52.25-5.34A.51.51,0,0,1,435.86,59.94Z"/><path class="cls-29" d="M386.27,69.38c-.72-.4-1-1.47-2.08-1.32.17-1.3,0-2.73,1.49-3.61A25.65,25.65,0,0,1,386.27,69.38Z"/><path class="cls-30" d="M424.27,56.93c.56,2.11-.17,4-1,5.84C423.34,60.76,422.93,58.68,424.27,56.93Z"/><path class="cls-31" d="M438.07,34.19,437.81,41c-1.32-1.18-1.31-3.42,0-6.76Z"/><path class="cls-32" d="M388.85,61.68c.57,0,1.24-.37,1.65.37-1.48-.16-1.25.89-1.22,1.76a7.35,7.35,0,0,1-.7,4.32A17.75,17.75,0,0,1,388.85,61.68Z"/><path class="cls-33" d="M398.11,18.33a.93.93,0,0,0-.38,1c-.11.13-.24.26-.39.25-1.26-.07-1.26-.08-1.52,1.07-.89-.4-.23-1.72-1.22-2.06-.21-.7-.17-1.5.73-1.21S397.42,17.38,398.11,18.33Z"/><path class="cls-34" d="M392.09,67.89c-.92,1.61-1,.08-1.44-.37a6,6,0,0,1,.37-2.87C392.46,65.47,392.78,66.51,392.09,67.89Z"/><path class="cls-35" d="M399.51,68.65l-.44,1c-1.87.77-3.68,1.92-5.82.87v-.83Z"/><path class="cls-36" d="M421.58,67.39a4.9,4.9,0,0,0-.54-3,3,3,0,0,1,0-2.87c.7,2.19,1.69,3.84,1.23,5.85A.51.51,0,0,1,421.58,67.39Z"/><path class="cls-37" d="M437,73.75c-.56,0-1.12,0-1.68-.07s-1.48,0-1.2-1c.23-.85.88-.71,1.56-.47a9.77,9.77,0,0,0,1.66.3Z"/><path class="cls-2" d="M378.53,30.11a6.3,6.3,0,0,1,.57,5c-.29,1.15-.48.06-.67-.18A16.9,16.9,0,0,1,378.53,30.11Z"/><path class="cls-38" d="M378,72.06l.58.13c.38.49-.13.68-.32,1-.08.53.34.85.55,1.26a4.32,4.32,0,0,1-2.45,0C376.63,73.42,376.46,72.21,378,72.06Z"/><path class="cls-39" d="M431.39,51.23h-.31c0-1.85-.13-3.7-.12-5.54,0-.8-.16-2,1.33-1-.39.33-.22.75-.19,1.15,0,.22,0,.45.06.67C432.2,48.11,432.61,49.81,431.39,51.23Z"/><path class="cls-40" d="M437.14,27.45a3.51,3.51,0,0,1,.68-2.14,25.46,25.46,0,0,1,.2,7.44c-.12.21-.25.21-.41,0C437.1,31,438.4,29.14,437.14,27.45Z"/><path class="cls-41" d="M421.58,67.39l.64-.06.91.35-.09.7c-1.87.48-3.66,1.49-5.69.79l0-.89C418.78,68.11,420.27,68.19,421.58,67.39Z"/><path class="cls-42" d="M429.59,55.38a4.56,4.56,0,0,1-.35,4.22C428.64,58.15,429.23,56.78,429.59,55.38Z"/><path class="cls-43" d="M405.74,66a2,2,0,0,1,1.47-2.71,3.66,3.66,0,0,1-.44,3.14C406.56,66,406.31,65.65,405.74,66Z"/><path class="cls-44" d="M405.56,73.85c-.51.15-1,.3-.52,1a4.88,4.88,0,0,1-2.77,0,3.61,3.61,0,0,1,3.2-1.36l.18.17Z"/><path class="cls-45" d="M435.28,49.76h.44l.19.12,0,.22c-.11.8-.23,1.59-1.31,1.82a3.79,3.79,0,0,1-.34-3l.4,0C435.09,49,435,49.54,435.28,49.76Z"/><path class="cls-46" d="M429,67.67c-.65-1.49-.18-2.42.44-3.88C430.12,65.44,429.66,66.36,429,67.67Z"/><path class="cls-47" d="M381,64.34c1,.93,1.06,2,.32,3.34C380.38,66.5,381.26,65.36,381,64.34Z"/><path class="cls-48" d="M435.86,59.94l0,.77-.77,1.82c-.85-1.65.58-2.71,0-4.07C435.88,58.94,435.7,59.5,435.86,59.94Z"/><path class="cls-49" d="M413.38,61.33a3.36,3.36,0,0,1-.41,3.93C412.29,63.73,413.22,62.86,413.38,61.33Z"/><path class="cls-2" d="M377.85,38.57a2.13,2.13,0,0,1,.2,3A3.54,3.54,0,0,1,377.85,38.57Z"/><path class="cls-50" d="M418.71,61.27a3.78,3.78,0,0,1,.16-3.05A4.27,4.27,0,0,1,418.71,61.27Z"/><path class="cls-51" d="M419.58,63.33a3.35,3.35,0,0,1,.18,2.89C419.07,65.53,419.07,65.53,419.58,63.33Z"/><path class="cls-7" d="M424.24,75.13c1.37-.07,2.74-.78,4.11,0A11.3,11.3,0,0,1,424.24,75.13Z"/><path class="cls-52" d="M381.8,55.88c.34.88.68,1.72-.38,2.46C380.86,57.28,381.7,56.6,381.8,55.88Z"/><path class="cls-53" d="M433.22,49,433,49l-.21,0c-1.08-.89-.58-2.26-1-3.34l.13-.07a.41.41,0,0,1,.66-.09A5,5,0,0,1,433.22,49Z"/><path class="cls-54" d="M405.74,66c.71-.72,1-.33,1,.44-.07.42-.22.92-.69.78S405.72,66.47,405.74,66Z"/><path class="cls-55" d="M400.13,64.79c0,.45-.26.7-.6.65-.13,0-.29-.36-.31-.57,0-.36.19-.63.56-.56C399.93,64.35,400,64.66,400.13,64.79Z"/><path class="cls-56" d="M424.07,20.82c-.79-.16-.55-.89-.76-1.37l.75-.1c.3.4.62.78.45,1.34A1,1,0,0,0,424.07,20.82Z"/><path class="cls-57" d="M413.93,68c-.26,0-.48-.11-.47-.4s.19-.64.55-.63c.12,0,.28.35.31.55A.42.42,0,0,1,413.93,68Z"/><path class="cls-58" d="M378.15,45.8c0,.25,0,.5-.31.53s-.58-.3-.64-.59.07-.67.49-.64S378.12,45.49,378.15,45.8Z"/><path class="cls-59" d="M397.5,65.23a1.33,1.33,0,0,1,.11,1.74C397.05,66.5,397.25,66,397.5,65.23Z"/><path class="cls-60" d="M437.61,32.79a.52.52,0,0,1,.41,0l0,1.44h-.15l-.15,0Z"/><path class="cls-61" d="M432.57,45.54l-.66.09c-.49-.56-.52-.95.37-1Z"/><path class="cls-62" d="M387.32,63.07c-.13.22-.26.58-.35.57-.32,0-.47-.29-.47-.63s.17-.46.38-.41S387.16,62.89,387.32,63.07Z"/><path class="cls-63" d="M386.39,74.6l.4-.34.45.3C387,74.68,386.69,74.87,386.39,74.6Z"/><path class="cls-64" d="M377.85,69.74a1.38,1.38,0,0,1,0,.31l-.38-.21A.27.27,0,0,1,377.85,69.74Z"/><path class="cls-56" d="M423.3,19.43a.54.54,0,0,1-.42-.56A.52.52,0,0,1,423.3,19.43Z"/><polygon class="cls-7" points="431.05 60.86 431.16 60.78 431.17 60.94 431.05 60.86"/><path class="cls-65" d="M435.9,50.11a.93.93,0,0,1-.18-.34.46.46,0,0,1,.32,0l0,.21Z"/><path class="cls-16" d="M418.46,18.9a.45.45,0,0,1-.47.46C418,19.05,418.13,18.87,418.46,18.9Z"/><path class="cls-3" d="M421.52,50.74a1.54,1.54,0,0,0,.08.42l-.12.23-.32.41a3.13,3.13,0,0,1-.72.84,6.15,6.15,0,0,1-1.55,1,1.59,1.59,0,0,1-1.18-.45c-.09-.54-.21-1-.94-.62a1.07,1.07,0,0,1-.42-.75,1,1,0,0,1,.1-.45c-.1,0-.1.08-.17.11a21.1,21.1,0,0,1-2,1.21,1.29,1.29,0,0,1-.94-.14c.11-1.16-.89-1.3-1.58-1.75s-1.77-.32-2.53-.83l-.13-.11c-.4-.21-.94,0-1.27-.45a9.78,9.78,0,0,0-2.63-4.64c-.89-1.82-2.84-.67-4.09-1.46l-.18-.64c0-.09,0-.19,0-.28a1.93,1.93,0,0,1,.2-.52l.2-.2h.5a5.62,5.62,0,0,1,.57.12.67.67,0,0,0,.66-.4.6.6,0,0,1,.38-.38c.41-.27.3-1.53,1.31-.7-.38.65.19.76.56,1,.73.46.67-.84,1.31-.58h.26a2.14,2.14,0,0,1,.36.39c.11.14.21.29.31.45a3.29,3.29,0,0,1,.25.51c.12.27.23.55.36.81.81,1.81,2,1.27,3.28.58,1.81.58,0,2.21.9,3.05.87,1.67,2.45,1.66,4.36,1.87-.81-1.18-2.39-1-2.63-2.27a1.27,1.27,0,0,1,.82-1.06,2.29,2.29,0,0,1,.68-.09c1.5-.22,2.49.73,3.55,1.53a4,4,0,0,1,.59.12,2,2,0,0,0,1.15,0,1,1,0,0,1,.71.53c.26.67.54,1.33.8,2l0,.59C422.14,50.1,421.5,50.14,421.52,50.74Z"/><path class="cls-66" d="M415.32,45.37l-.17,0H415c-1.06-.49-1.83-1.11-1.15-2.42s-.52-3.48,1.38-4.59l1.92,1.8a4.79,4.79,0,0,1,0,3.11c.12,0,0-.08.05-.1a5.55,5.55,0,0,1,.5-1.65l.49.12a3.73,3.73,0,0,1,2.53.69l-.33,1.92a4,4,0,0,1-.5.69C418.41,45.8,416.83,45.27,415.32,45.37Z"/><path class="cls-67" d="M409.88,22.14c1.15-.57,2.32-1.11,3.44-1.74.64-.36,1.06-.27,1.39.36a4.56,4.56,0,0,0-.35,2.84c-.31.78.08,1.18.78,1.41a.93.93,0,0,1,0,.67,2.37,2.37,0,0,1-1.84,1.16c-3.58.41-3.77.31-4.11-2.15l.12-.65.09-.13.47-.81a.66.66,0,0,1,0-1Z"/><path class="cls-68" d="M401.08,43.32c1.7-.7,3.28-.84,4.41,1a1.5,1.5,0,0,1-1.43.88c-.18-.06-.29,0-.31.18a.43.43,0,0,1,.44-.1c.69.1,1.5,0,1.72.92-.23.7-.18,1.47-.47,2.15-.48,1.15-1.17,1.83-2.39.76l-2.15-2.43h0l-.16-.95Z"/><path class="cls-69" d="M396.64,28.47l-2.42-.25c-.32-.08-.42-.42-.68-.58-1.09-1.7-.89-3.54-.55-5.38.29-.31.57-.33.83,0,0,.94-.29,2.11.93,2.48s1.39-1,2.09-1.65c.82,1.7-1.05,1.75-1.52,2.62.74,1,1.36-.17,2,0a1.89,1.89,0,0,1,.79-.33,1.39,1.39,0,0,1,.56.2,1.64,1.64,0,0,1,.7,1,1.31,1.31,0,0,1-.33,1.44l-1.24.39A2,2,0,0,1,396.64,28.47Z"/><path class="cls-70" d="M415,30.42c.14,1-.54,1-1,1.19-2.34,1.11-2.53,2.24-.7,4.18.32.34.94.49.61,1.12-.42.79-.86.2-1.39,0A3,3,0,0,1,410.31,34,6.19,6.19,0,0,1,412,29.78a1.49,1.49,0,0,1,1.74-.55A3.12,3.12,0,0,1,415,30.42Z"/><path class="cls-71" d="M393,38.64a6.74,6.74,0,0,1,1.39,3.26l-.21.22a1.23,1.23,0,0,1-.58.08c-.37-.07-.68-.3-1-.36.58,2.77,1.5,4,3,4.16.11-.18.22-.35.34-.52s.42-.47.79-.32c.52,1.67.46,1.8-2.07,4.24-.7-.22-.76-1-1.18-1.43a3.3,3.3,0,0,1-1.44-1.39,8.89,8.89,0,0,1-1.37-2.74c-.17-.56.23-1.13,0-1.69-.73-.84.14-1.54.21-2.31h0Z"/><path class="cls-72" d="M424.86,24.06a5,5,0,0,1,1.69-1.92c.38-.22.41-.6,1.07-.17,1.28.84,1.37.7,1.49,1.37a12.73,12.73,0,0,0-1.22,1.25c-1.18.31-2.25.57-2.46,2.17s.52,2.71,2,3.56a2.65,2.65,0,0,1-2.31,1.12C423.58,29,424.35,26.54,424.86,24.06Z"/><path class="cls-73" d="M395.82,20.68l-.15-1.59c.89-.6,1.37.47,2.07.27Q400,21.58,402.07,24c1,1.19.53,1.67-.67,2a.74.74,0,0,1-.9-.28c-.43-1.38-2.63-.33-2.81-2C398,22.12,396.5,21.66,395.82,20.68Z"/><path class="cls-74" d="M411.44,43.7c-1.9,2.06-2.72,1.85-4-1a4.79,4.79,0,0,0,.41-1.43,3.91,3.91,0,0,1,.22-.57c.36-.58.52-1.42,1.51-1.24a2.52,2.52,0,0,0,1.87,1c.91,0,.74.63.75,1.17C411.92,42.27,412.21,43.17,411.44,43.7Z"/><path class="cls-75" d="M382.49,19.89c1.16-.8,2.33-1.59,3.38.14-.36.38.14,1-.35,1.32-2.2.07-2.2.07-1.57,2.9-.26.94-.8.92-1.48.43a4.16,4.16,0,0,1-.81-3.24,3.7,3.7,0,0,0,.26-.56Z"/><path class="cls-76" d="M389.84,44.78a19.93,19.93,0,0,0-3-5.14c-.28-2-1.25-4-.69-6,.75,3.34,2.73,6.1,4,9.15C390.63,43.53,391.11,44.29,389.84,44.78Z"/><path class="cls-77" d="M409.23,24.69c.77,2.63,2.75,1.61,4.43,1.46.38.27.86.47.72,1.08a1.08,1.08,0,0,1-1.18.6l-2.28.7a1.3,1.3,0,0,1-1.68.83,1.66,1.66,0,0,1-.77-.67C407.74,27.18,409,26,409.23,24.69Z"/><path class="cls-78" d="M400.81,38.2a8.33,8.33,0,0,1-2.27,3.95c-1.77-1.06-1.77-3.12-3-4.59Z"/><path class="cls-79" d="M417.28,39.2c1.07-1.53,2.75-.07,3.93-1,.45,1.17-.07,2.09-.14,3-1.63,1.35-1.88,1.29-3-.8A1.77,1.77,0,0,0,417.28,39.2Z"/><path class="cls-80" d="M424.61,21.53c1.17.67-.48,1.06-.16,1.65-1.36,2.36-1,5-1,7.67A7.36,7.36,0,0,1,424.61,21.53Z"/><path class="cls-81" d="M391,32.22c-1.88-1.28-2.58-3.27-1.77-5s1.84-1.7,3.07.07c-.73.57-2.16-.31-2.44,1.06s.66,2.09,1.66,2.73A1.09,1.09,0,0,1,391,32.22Z"/><path class="cls-82" d="M411.44,43.7a5.12,5.12,0,0,1,.75-2.14c.16.92.89,1.17,1.64,1.4-.13,1.05.62,1.69,1.15,2.42l-.66.49a1.41,1.41,0,0,1-.52.05,1.6,1.6,0,0,0-1,.43,1.26,1.26,0,0,1-1.07.36c-.43-.59-.85-1.17-.2-1.89C412,44.43,412.07,44,411.44,43.7Z"/><path class="cls-83" d="M413.2,27.83l1.2-.85c.21-.65,1.15-1,.66-1.93l0,0q-.27-.15-.18-.3a.26.26,0,0,1,.18-.15v0q.15-.28.31-.55c.32-.32.46-.88,1.24-.84a3.64,3.64,0,0,1-.54,3c-.91,1.54.3,1.53,1.12,1.88-.06.85-.78.92-1.35,1.16C415.22,28.35,414.16,28.19,413.2,27.83Z"/><path class="cls-84" d="M380.6,31.38c-.51-.79.19-1.33.39-2l1.55-1.7c-.08,2.17,1.24,3.85-.43,5.58C381,33.1,381.78,31.45,380.6,31.38Z"/><path class="cls-85" d="M402.84,27.32c.45.63,1,.84,1.57.2a1.23,1.23,0,0,1,.92,1.07,3.45,3.45,0,0,0,.29,1.15c.33.73.81,1.59-.33,2s-1.68-.2-1.9-1.23c-.07-.3,0-.64-.17-.91a3.34,3.34,0,0,0-1.61-1.82c-.22-.44,0-.67.39-.8a.38.38,0,0,1,.32,0A.6.6,0,0,1,402.84,27.32Z"/><path class="cls-86" d="M403.22,29.57c.82.5.66,2.17,2.29,1.81.44-1-2.08-1.69-.47-2.87a1.19,1.19,0,0,1,.77.37c.14.13.27.28.4.42.33.37.81.57,1.12,1a1.12,1.12,0,0,1,.06.61c-.13.47-.81.92,0,1.42-.89,2-2.14.6-3.26.34a2.36,2.36,0,0,1-1.37-1.36,2.31,2.31,0,0,1-.18-.62.49.49,0,0,1,.33-.48Z"/><path class="cls-87" d="M386.43,40.19c0,1.41.35,3-1.57,3.59-.15-.71-.28-1.43-.47-2.13s-.38-1.22.29-1.75S385.86,40,386.43,40.19Z"/><path class="cls-88" d="M408.82,36.1l-.35-1.45c-.22-.84-.65-1.67,0-2.52.33-.41.7-.74,1.29-.58-.48,2.45-.6,4.84,1.66,7a1.9,1.9,0,0,1-2.36-1A1.67,1.67,0,0,0,408.82,36.1Z"/><path class="cls-89" d="M408.9,32a4.5,4.5,0,0,0-.43,2.62l-1-1c-.21-.62.31-1.24,0-1.86,0-1.06.88-1.68,1.38-2.49l.23-.22c.72.15,1.24-.38,1.87-.55,1,1.4-.53,1.77-1.06,2.54C409.2,31,409.14,31.62,408.9,32Z"/><path class="cls-90" d="M389,37a17.79,17.79,0,0,1-1.77-5.25c1.71,1,2.74,1.91,2,3.81-.13.32-.12.63.29.76C389.69,36.88,389.52,37.1,389,37Z"/><path class="cls-91" d="M393.27,32.23c.64-.05,2.89,1.76,2.92,2.36s-.15.79-.67.8-2.88-2-2.87-2.49S393,32.36,393.27,32.23Z"/><path class="cls-92" d="M407.71,31.71c-.06.65.13,1.33-.24,1.95a5.13,5.13,0,0,1-3.45-.16.77.77,0,0,1-.36-.43.69.69,0,0,1-.07-.46.41.41,0,0,1,.31-.45c1.14-.16,2,1.52,3.26.49a.22.22,0,0,0,0-.22,2.13,2.13,0,0,0-.29-.29C406.88,31.47,407.22,31.45,407.71,31.71Z"/><path class="cls-93" d="M403.77,36.73c1.16-.56,2.27-.05,3.32-.21.65-.1.86.32.8.88s-.45.57-.89.53A5.59,5.59,0,0,1,403.77,36.73Z"/><path class="cls-94" d="M419.47,34.58c.93-1,.69-3.25,3.2-2.89A6.11,6.11,0,0,1,420,35C419.53,35.28,419.44,35,419.47,34.58Z"/><path class="cls-95" d="M397.69,23.7c.41.36.53,1.12,1.46.55s1.66-.12,1.53,1.13c-.31.94-.88,1.25-1.79.74l-.07,0a3.84,3.84,0,0,0-.48-.47h0c-.2-.14-.5-.17-.56-.48Z"/><path class="cls-96" d="M380.76,36.23c-.81-1.33-1.8-2.63-.61-4.25.15,1.77,1.21,3.29,1.83,4.94l-.51.16Z"/><path class="cls-97" d="M381.09,40.6a2.75,2.75,0,0,0,.37.22c0,1.8,1.15,3.27,1.44,5-1,.6-1.09-.33-1.27-.85-.37-1.06-.6-2.17-.89-3.26C380.95,41.36,380.61,40.85,381.09,40.6Z"/><path class="cls-98" d="M386.87,29.7c-.8-.17-.89-.89-1.21-1.41s-.62-.82-.27-1.32a.71.71,0,0,1,.59-.26c.56.16,1.12.45,1.11,1.13S387.34,29.11,386.87,29.7Z"/><path class="cls-99" d="M399.29,30.57l1.47-.16a1.65,1.65,0,0,1,.22,1.92c-1.4-.46-2,.52-2.59,2.06-.22-1.82.64-2.75.92-3.85Z"/><path class="cls-100" d="M401,32.33c-.55-.59-.17-1.28-.22-1.92l.17-.12c.77-.62,1.34-.1,1.93.34v0a2.14,2.14,0,0,1,.12,1.9C402.26,32.85,401.66,32.23,401,32.33Z"/><path class="cls-101" d="M409.57,39.42c-.77.29-.73,1.23-1.34,1.64a6,6,0,0,1-1.36-.36l-.14.07-.14-.05c.23-.47-.95-1,.06-1.44a.34.34,0,0,0,.35.09q.19-.06,0-.27C408,38.13,408.76,38.9,409.57,39.42Z"/><path class="cls-102" d="M385.19,30c1,.56,1.29,1.69.54,2.35s-2.07.28-1.25-1.14C384.69,30.89,384.22,30,385.19,30Z"/><path class="cls-103" d="M383.89,35.9c.31-.33.58-1.38,1.08-.41s.91,2.28-.34,3.28c-.6-.5,0-1.29-.53-1.75A1.08,1.08,0,0,1,383.89,35.9Z"/><path class="cls-104" d="M389,37l.51-.68c.19-.26.4-.5.56-.78.27-.46.54-.73,1.14-.49s0,.85.32,1.15l.06-.05c-1-.05-1.06.86-1.52,1.36C389.09,38.56,389.09,37.67,389,37Z"/><path class="cls-105" d="M416.59,32.14c.21,2.26-1.48,1.26-2.41,1.91C414,31.78,416.25,33.34,416.59,32.14Z"/><path class="cls-106" d="M380.38,29a1.38,1.38,0,0,0-.44,0c-.53-1.07.55-1.72.69-2.62l0,0c.7,0,1.61-.07.95,1.09A13.46,13.46,0,0,1,380.38,29Z"/><path class="cls-107" d="M400.9,42.68c-.37.13-.44.73-1.18.59A10.91,10.91,0,0,1,402,39c.51,1.25-.77,1.74-.65,2.64h0c-.23.32-.09.79-.43,1.06Z"/><path class="cls-108" d="M421.36,23c-.52.62-1.33,1-1.85.41s-1.7-1.39-.88-2.63a.27.27,0,0,1,.46,0c.15.49-.1,1.18.67,1.37l.24.06a1.34,1.34,0,0,0,.72.12.25.25,0,0,1,.06.26C421,22.68,421.28,22.71,421.36,23Z"/><path class="cls-109" d="M421,26.43c.11.29.21.59.33.88.33.75-.25,1-.74,1.2a.73.73,0,0,1-.88-.1c-.47-.53.12-.81.32-1.19a2,2,0,0,0,.09-.68A.6.6,0,0,1,421,26.43Z"/><path class="cls-110" d="M419.47,34.58,420,35c-2.22,1.14-2.44,1.1-3-.67C417.9,34,418.63,35,419.47,34.58Z"/><path class="cls-111" d="M399.81,45.32a2,2,0,0,1-1.26,1.27,5.83,5.83,0,0,1-.36-2.48C399.25,43.83,399.36,44.8,399.81,45.32Z"/><path class="cls-112" d="M398.89,26.14a2.36,2.36,0,0,0,1.79-.74l.72.64c-.28.62-1.26.28-1.42,1,.29.29.32.57,0,.84l-.95.14Z"/><path class="cls-113" d="M389.84,44.78c.74-.57.22-1.34.32-2l.5-.64c.61.4.39,1,.47,1.61-.43.74.38,1.21.41,1.86a.86.86,0,0,1-.7.66Z"/><path class="cls-114" d="M415.87,29.28c.14-.74.81-.88,1.35-1.16a1.86,1.86,0,0,1-.06,2.06C416.47,30.73,416.25,29.71,415.87,29.28Z"/><path class="cls-115" d="M395.77,40.27c-1.49-.06-1.2-1.55-1.84-2.29C395.59,37.9,395.55,39.19,395.77,40.27Z"/><path class="cls-116" d="M389,25a1.55,1.55,0,0,1-1.29-.78c-.35-.41-.87-1-.23-1.4.83-.54.77.36,1,.81S389.11,24.29,389,25Z"/><path class="cls-117" d="M421.36,23l-.59-.41c.72-.67.06-1.56.27-2.35a1.64,1.64,0,0,1,1.25,1.66Z"/><path class="cls-118" d="M397.67,43.05c0,.39.13,1.29-.54.77-.87-.68-1.68-1.72-.81-3A5.74,5.74,0,0,0,397.67,43.05Z"/><path class="cls-119" d="M416.73,43.82c-.77-.38-.56-.9-.09-1.29a2,2,0,0,0,.5-2.36c.64.27.56.82.53,1.35-.35.68.27,1.47-.25,2.13l-.22,0-.12-.19v.22l-.12.19Z"/><path class="cls-120" d="M418.13,40.45c.86.71,1.41,2.58,3,.8a.83.83,0,0,1-.4,1.08c-1,.31-1.94.48-2.53-.69Z"/><path class="cls-121" d="M397.88,31.18c-.13-1.37,1-1.57,1.82-2.21.42.83-.44,1.06-.41,1.59l0,0-1.43.64Z"/><path class="cls-122" d="M384.13,29.77c-1.11-.85-.86-1.55-.77-2.42C384.39,28,384.34,28.66,384.13,29.77Z"/><path class="cls-123" d="M385.58,24.3c-.35-.73-.87-1.28-.5-2.26C385.9,22.71,386.6,23.21,385.58,24.3Z"/><path class="cls-124" d="M421,26.43l-.87.11c.5-.64-1.06-2.46,1.3-2.16Z"/><path class="cls-125" d="M384.21,43.93c.17.92.38,1.84.5,2.78s-.4.84-1,.52l0-.16c0-.25.19-.43.23-.67C384,45.57,383.52,44.68,384.21,43.93Z"/><path class="cls-126" d="M382.48,24.69c.54,0,1.1.1,1.48-.43.63.78-.05,1.19-.56,1.36C382.71,25.86,382.45,25.34,382.48,24.69Z"/><path class="cls-127" d="M380.21,39.27c-1.62,1.26-.77-.45-1-.84.14-.37.37-.86.78-.64C380.54,38.1,380.22,38.75,380.21,39.27Z"/><path class="cls-128" d="M417.51,32.71c0-1,.54-1.44,1.5-1.86C418.83,31.88,418.8,32.71,417.51,32.71Z"/><path class="cls-129" d="M403.41,41a1.7,1.7,0,0,0,0,.37c.12,1.33-.73.88-1.4.75l-.19-.47C402.34,41.44,402.27,39.74,403.41,41Z"/><path class="cls-130" d="M380.63,26.33c-1.15-.47-.64-1.16-.4-1.91,1.56.54.25,1.32.37,1.94Z"/><path class="cls-131" d="M400,27.92l0-.84,2-.13-.39.8Z"/><path class="cls-132" d="M402.85,30.63l-1.93-.34c.57-1.37,1.25-.92,2-.12Q402.86,30.4,402.85,30.63Z"/><path class="cls-133" d="M420.71,29.78c0,1-.14,1.59-.83,2C419.36,30.92,419.89,30.49,420.71,29.78Z"/><path class="cls-134" d="M382.49,35.2c-.1-1.21.5-1.58,1.17-2.27A2.1,2.1,0,0,1,382.49,35.2Z"/><path class="cls-135" d="M383.89,35.9l.2,1.11c-.58.2-.19.93-.68,1.22A1.73,1.73,0,0,1,383.89,35.9Z"/><path class="cls-136" d="M391,32.22a1.56,1.56,0,0,1,.52-1.11c.33,0,.83,0,.77.37A1,1,0,0,1,391,32.22Z"/><path class="cls-137" d="M422.66,37.13c1,.34.7,1.14.49,1.75-.11.3-.5-.16-.77-.28Z"/><path class="cls-132" d="M403,32.57l-.12-1.9c.54.36.26,1.3,1.05,1.49l-.31.45Z"/><path class="cls-138" d="M420.7,36.86c.05-.43-.05-1,.66-.92.16,0,.44.34.42.47-.12.67-.71.32-1.1.43Z"/><path class="cls-139" d="M380.17,20.58a.61.61,0,0,0,.38-.11c.44.21.59.54.29.94-.11.15-.47.33-.54.28C379.92,21.39,380.1,21,380.17,20.58Z"/><path class="cls-140" d="M391.49,36.25c1.27.51.47,1,0,1.54-.39-.59.1-1.08.08-1.59Z"/><path class="cls-141" d="M418.26,24.18c-.22-.19-.49-.31-.54-.5a.43.43,0,0,1,.5-.58.66.66,0,0,1,.44.46C418.67,23.74,418.43,23.93,418.26,24.18Z"/><path class="cls-142" d="M424.19,32.6c.11.69-.18,1-.88,1.07l-.06-.94a.6.6,0,0,1,1-.12Z"/><path class="cls-143" d="M401.62,33.89c.16,0,.33.1.38.33s-.08.37-.13.37c-.2,0-.48,0-.57-.14S401.27,34,401.62,33.89Z"/><path class="cls-144" d="M394.32,36.57a.35.35,0,0,1-.5.25.42.42,0,0,1-.18-.36.33.33,0,0,1,.49-.25C394.22,36.25,394.25,36.45,394.32,36.57Z"/><path class="cls-145" d="M415.08,24.64a.69.69,0,0,1,0,.45c-1.25,0-1.21-.64-.72-1.49C414.53,24,414.52,24.51,415.08,24.64Z"/><path class="cls-146" d="M423.32,33.64l.53.46c-.07.31.23,1-.43.75S422.58,34.11,423.32,33.64Z"/><path class="cls-147" d="M394.53,29.57a.4.4,0,0,1-.49.35c-.11,0-.22-.21-.26-.35s0-.47.32-.45A.4.4,0,0,1,394.53,29.57Z"/><path class="cls-148" d="M396.6,29.93c0,.25-.23.45-.45.37s-.25-.32-.3-.5.19-.23.32-.25A.36.36,0,0,1,396.6,29.93Z"/><path class="cls-149" d="M418.19,24.84a.42.42,0,0,1,.43.44c0,.44-.33.55-.64.52a.4.4,0,0,1-.31-.55C417.75,25,417.87,24.8,418.19,24.84Z"/><path class="cls-150" d="M393.82,22.29l-.83,0c-.1-.35-.41-.88.15-1S393.85,21.77,393.82,22.29Z"/><path class="cls-151" d="M382,40.66c.42-.08.81-.08,1,.37C382.38,41.84,382.12,41.45,382,40.66Z"/><path class="cls-152" d="M408.9,32c0-.64-.1-1.38,1-1l-.15.47Z"/><path class="cls-153" d="M390.87,39.81c-.35-.1-.88.09-.91-.52a.42.42,0,0,1,.28-.31c.63,0,.44.54.62.84Z"/><path class="cls-154" d="M390.78,33.41a.82.82,0,0,1,.83.65s-.4.32-.54.26a1.33,1.33,0,0,1-.68-.55C390.28,33.55,390.52,33.4,390.78,33.41Z"/><path class="cls-155" d="M399.67,34.93l-.27-.25.43-.46c.08.1.22.19.23.29C400.1,34.78,399.93,34.91,399.67,34.93Z"/><path class="cls-156" d="M385.52,21.36c0-.48-.24-1,.35-1.32a1.77,1.77,0,0,1,.13,1.4Z"/><path class="cls-157" d="M396.64,28.47a1.28,1.28,0,0,1,1.14,0C397.41,29.63,397,28.78,396.64,28.47Z"/><path class="cls-158" d="M407,39.11c.23,0,.45.06.68.11s.19.2,0,.3a.74.74,0,0,1-1-.23A1.51,1.51,0,0,1,407,39.11Z"/><path class="cls-159" d="M405.28,41.31c-.49.16-.9.08-1.06-.47-.11-.4.2-.48.5-.52Z"/><path class="cls-160" d="M408.82,36.1c.69.38.78.83.19,1.39A1.73,1.73,0,0,1,408.82,36.1Z"/><path class="cls-161" d="M419.62,21.13c.85-.08.62.47.54.93q-.19.32-.45.05l0,0Z"/><path class="cls-162" d="M393.53,27.64l.68.58C393.42,28.69,393.63,28,393.53,27.64Z"/><path class="cls-73" d="M397.79,25.21l.56.48-1.06.09Z"/><path class="cls-4" d="M424.2,32.61l-1,.12C423.5,32.11,423.82,32.07,424.2,32.61Z"/><path class="cls-121" d="M397.88,31.18l-.07.63-.26-.13.34-.5Z"/><path class="cls-163" d="M382.47,39.1l-.38.42c-.35-.37-.24-.63.19-.81A.69.69,0,0,0,382.47,39.1Z"/><path class="cls-10" d="M381.93,20.89l-.26.56Z"/><path class="cls-3" d="M383.9,46.39l-.23.67Z"/><path class="cls-132" d="M403.65,33.06l.36.43C403.74,33.47,403.59,33.36,403.65,33.06Z"/><path class="cls-145" d="M415.41,24.06l-.31.55A.49.49,0,0,1,415.41,24.06Z"/><path class="cls-16" d="M419.08,20.79h-.46l.23-.34Z"/><path class="cls-164" d="M414.23,52.36a2.29,2.29,0,0,1,2.42-1.25l0,0,0,.53c-.52.66-1.2,1.16-1.73,1.79,0,0,0,.18,0,.18s0-.18.06-.19a.74.74,0,0,1,1-.24,1.6,1.6,0,0,1,.32.56,1.94,1.94,0,0,1-.21,1.29c-1.15,1-2.29-.68-3.43,0a15.16,15.16,0,0,1-3.43-.07c-1-.13-1.73-.54-1.52-1.75.42-.88,1-1.49,2-1C411.18,53.54,412.71,52.77,414.23,52.36Z"/><path class="cls-165" d="M387.36,50c-1.51-2.24-1.43-3,.46-5,.31-.33.59-.62.94-.15.22.3.44.69,0,1-1.39,1-.94,1.86.22,2.74s1,2.24.75,3.51C388.44,51.94,387.91,50.95,387.36,50Z"/><path class="cls-166" d="M409.76,52.7c-.8-1.09-1.27.38-1.95.26l-.28.06c.25-1.19,1.46-1.85,1.68-3.05,1.55-.57,2.71.22,4,.94,1.15.63-.35,1.05.12,1.48A3.5,3.5,0,0,1,409.76,52.7Z"/><path class="cls-167" d="M399.73,54.6c1.14.42,1.22.44.86,1.55-.22.67.23.67.55.76s.81.22.36.74c-.31.35-.89,1-1.12.43-.93-2.17-2.64-3.64-4.18-5.29-.16-.17.14-.76.23-1.16,1-.76,1.49,0,2,.63A10.18,10.18,0,0,1,399.73,54.6Z"/><path class="cls-168" d="M389,52.83c2.18-.14,2.18-.14,1.49-3.32,2.47,2.23,2.41,3.6-.31,6.34-1.05-.25-.81-1.53-1.57-2a.78.78,0,0,1-.24-.55C388.49,53,388.64,52.73,389,52.83Z"/><path class="cls-71" d="M396.9,57.48l1.75,1.72c-1.85,1.79-4.12.76-6.22,1.26l.26-2.1a1.16,1.16,0,0,1,.53-.39c.85-.33,1.62.62,2.48.15C396,57.81,396.29,57.31,396.9,57.48Z"/><path class="cls-169" d="M403,49.1c1.79.53,2.23-.38,1.78-1.85-.34-1.11.24-1,.94-1,1.69.27,1.3,1.89,1.88,2.88a.6.6,0,0,1-.14.62c-.85,1.76-2.42,1.19-3.82,1.19C402.91,50.5,403.1,49.75,403,49.1Z"/><path class="cls-170" d="M385.44,55.59c-2.23-2-2.65-3.73-1.26-5.82l1.52,3.31c.32.35,0,.74.09,1.11a2.26,2.26,0,0,1-.15,1.17Z"/><path class="cls-171" d="M422.11,52c.61.48.68.88.08,1.52-1,1.11-2.46,1.53-3.69,2.27l-1.78.65c0-1.24,1.25-1.35,1.7-2.09.23-.48.83-.56,1.1-1s.76-.69,1.2-1S421.5,51.63,422.11,52Z"/><path class="cls-172" d="M407.53,53a.25.25,0,0,0,.28-.06c.26.85.4,1.6,1.72,1.43a5,5,0,0,1,3.11.61,3.66,3.66,0,0,1-4.4.49A1.66,1.66,0,0,1,407.53,53Z"/><path class="cls-173" d="M397.35,50.42a.38.38,0,0,0-.06-.38l0,0c.76-.25.77-1.23,1.91-1.73a6.61,6.61,0,0,0,1.34,5.23c-1,.85-1.46,0-1.85-.63A13,13,0,0,1,397.35,50.42Z"/><path class="cls-174" d="M403.68,50.9c0-.31-.29-1.13.19-.84,1.55.95,2.65.38,3.77-.63a.35.35,0,0,1-.08.54h0a2.78,2.78,0,0,0-.28.58l-1.53,2C404.52,52.5,404.48,51.26,403.68,50.9Z"/><path class="cls-175" d="M388.62,53.4a.94.94,0,0,1,0,.45c-.48.13-.36,1.63-1.35.59a2.1,2.1,0,0,0-.72-1.91l0,0c-.31-.36-.43-.72,0-1.06l.72-1.53c1.09.39,1.6,1.41,2.33,2.18l-.67.15C387.94,52.32,388.51,52.95,388.62,53.4Z"/><path class="cls-176" d="M408.47,58.78c-.72.11-1.44.28-2.16.33-1.19.09-1.35-.76-1.66-2,1.88.7,3.49,1.15,5.17.72C409.88,58.9,408.75,58.22,408.47,58.78Z"/><path class="cls-177" d="M392.53,46.43a2.31,2.31,0,0,1,1,1.53c-.84.92.06,1.68.23,2.5-.15.29-.06.66-.31.92A3.32,3.32,0,0,1,392.31,50c.28-.35.14-.75.13-1.28,0-.18-.35,0,0,0,0,.44.16.89-.11,1.3-1-.73-.43-2.09-1.21-2.91a1.79,1.79,0,0,1,.65-.46A2.61,2.61,0,0,1,392.53,46.43Z"/><path class="cls-178" d="M393.07,58.35l-.19,0h-.19c-.43-1.88.21-2.51,2.19-2.16l.23.27C395.42,58.19,393.8,57.79,393.07,58.35Z"/><path class="cls-179" d="M400.89,46.66c-.42,1.57,1.1,2.56,1.36,4.11-2.71-2.11-2.88-2.67-1.35-4.1Z"/><path class="cls-180" d="M402,53c.08,0,.18,0,.24,0,1.23.66,1,1.69.62,2.69-.11.29-.63.25-.84,0-.68-.88-1.07-1.79,0-2.68Z"/><path class="cls-181" d="M397.35,50.42a6.87,6.87,0,0,1,1.59,2.35c.32.56.57,1.47,1.57.81.15.66-.55.65-.78,1-1.1-.39-1.46-1.43-2-2.32-.3-.49-.58-1-1.31-.65Z"/><path class="cls-182" d="M396.9,57.48a1.74,1.74,0,0,0-.8,1c-.71.41-.8-.17-.84-.59-.07-.6.2-1.26-.4-1.74l0,.06c.33-.53-.6-.72-.27-1.4C396.14,55,396.32,56.45,396.9,57.48Z"/><path class="cls-183" d="M385.71,46.28a4.47,4.47,0,0,1,1.84-3.5C387.68,44.31,386.53,45.21,385.71,46.28Z"/><path class="cls-184" d="M393.42,51.38c0-.34-.07-.71.31-.92.08.89,1,.63,1.42,1a1.06,1.06,0,0,1,.17,1.32,1,1,0,0,1-1,.43c-.71-.05-.25-.58-.33-.89s-.29-.35-.42-.53Z"/><path class="cls-161" d="M402.11,59.58a3.51,3.51,0,0,1,1.44-1.52c.16-.12.28-.08.39.11.31.52,1.08,1,.4,1.66S402.87,60.23,402.11,59.58Z"/><path class="cls-185" d="M387.39,55.95c.41.81,1.51,1.29,1.23,2.63a6.07,6.07,0,0,1-2.67-2A1.14,1.14,0,0,1,387.39,55.95Z"/><path class="cls-186" d="M387.39,55.95a2.64,2.64,0,0,1-1.44.62.75.75,0,0,1-.51-1l0,0c.58-.5.22-1-.06-1.42l.37-1.12Z"/><path class="cls-187" d="M408.47,58.78c.22-.65,1.07-.38,1.35-.93.68-.14.71-.81.81-1.29,1,.09.63,1.18,1.51,1.19A6.13,6.13,0,0,1,408.47,58.78Z"/><path class="cls-188" d="M386.64,51.51l0,1.06c-1.1-1-1.19-2.31-1.44-3.63A5.37,5.37,0,0,1,386.64,51.51Z"/><path class="cls-189" d="M397.29,50l-1.48.69c.2-1.4,1.1-2.15,1.84-3.3.57,1.22-.65,1.81-.39,2.65Z"/><path class="cls-190" d="M397.86,61.42c-1,.8-2,.74-3.36-.07a10,10,0,0,1,3.34-.45q.23.17.16.34T397.86,61.42Z"/><path class="cls-191" d="M396.74,45.15c-.32.05-.38.31-.46.56-1.25-.07-1-1.3-1.58-1.95a5.35,5.35,0,0,1-.43-.93,1.06,1.06,0,0,1,.2-1l0,0C396,42.43,396.14,43.94,396.74,45.15Z"/><path class="cls-192" d="M416.08,55l-.2-1.51a.29.29,0,0,0,.21-.33l.09-.2a1,1,0,0,1,.31-.31l.21-.08c.49-.16,1.08-.61,1.19.39.07.43-.06.68-.55.58C416.64,53.77,417.09,55,416.08,55Z"/><path class="cls-193" d="M397,55.24a3.39,3.39,0,0,1,2,2.65A3.56,3.56,0,0,1,397,55.24Z"/><path class="cls-194" d="M405.51,56a3.46,3.46,0,0,1-.31-2.14C406.44,54.46,407.14,55,405.51,56Z"/><path class="cls-195" d="M379.45,41.81a2.85,2.85,0,0,1,1.2,2.41C379.32,43.73,380,42.47,379.45,41.81Z"/><path class="cls-196" d="M383.66,48.27c0,1-.15,1.64-1,1.51-.2,0-.5-.52-.46-.75C382.36,47.94,383.16,48.81,383.66,48.27Z"/><path class="cls-197" d="M402,53c-1.24-.19-1.58-1-1.65-2.29.9.69,1.71,1.19,1.64,2.31Z"/><path class="cls-198" d="M388.62,53.4c-.75-.49-.63-1.39-1.22-2.05,1-.15,1.05.8,1.63,1v.52Z"/><path class="cls-6" d="M417.35,53.54l.55-.58.88.39c.31.26.77,0,1.07.35-.21.77-1,.46-1.43.71Z"/><path class="cls-199" d="M391.08,59.33a.67.67,0,0,1-.78-.41.52.52,0,0,1,.32-.77c.39-.14.61.12.77.42S391.43,59.17,391.08,59.33Z"/><path class="cls-200" d="M409.51,62.17c-.51-.89-.62-1.41-.21-1.88a.68.68,0,0,1,.6.13C410.12,61,409.82,61.42,409.51,62.17Z"/><path class="cls-201" d="M386.59,52.53c.85.4,1.55.87.72,1.91A3.31,3.31,0,0,1,386.59,52.53Z"/><path class="cls-191" d="M392.7,54.4c.33.84.32,1.5-.82,1.56l0,0a1.15,1.15,0,0,1,.82-1.56Z"/><path class="cls-202" d="M392,47.08h-.85l-.26-.84c.06-.3.18-.54.52-.57C392,46,392.47,46.31,392,47.08Z"/><path class="cls-203" d="M401.55,60c0,.38-.3.51-.59.55s-.7.14-.59-.39a.75.75,0,0,1,.68-.55C401.34,59.59,401.47,59.75,401.55,60Z"/><path class="cls-204" d="M402.59,57.81a1.13,1.13,0,0,1,.72-1.46c.65.31.23.62,0,.88A5.12,5.12,0,0,1,402.59,57.81Z"/><path class="cls-205" d="M381.09,40.6l-.35,1.1a5.43,5.43,0,0,1-.55-1.08.59.59,0,0,1,.45-.74C381,39.86,381.06,40.27,381.09,40.6Z"/><path class="cls-206" d="M404,52.38c-.17.39-.24.73-.34.74a.62.62,0,0,1-.63-.55.33.33,0,0,1,.37-.44A2.13,2.13,0,0,1,404,52.38Z"/><path class="cls-207" d="M390.28,60c-.07.21-.14.46-.43.27a1.25,1.25,0,0,1-.45-.47c-.1-.22,0-.47.3-.38S390.3,59.62,390.28,60Z"/><path class="cls-169" d="M407.56,50l.08-.54,0,0,.26,0c.44,0,.94-.06,1.21.44A1.26,1.26,0,0,1,407.56,50Z"/><path class="cls-208" d="M391.87,56c0,.36.17.8-.35,1a.38.38,0,0,1-.51-.31c-.07-.71.43-.67.91-.61Z"/><path class="cls-209" d="M386.33,59c-.07.44-.3.63-.64.62-.08,0-.24-.24-.22-.34.05-.29.09-.68.49-.68C386.09,58.62,386.23,58.9,386.33,59Z"/><path class="cls-210" d="M414.24,56.7c-.06.21-.08.49-.4.35s-.4-.25-.44-.42.17-.39.42-.35S414.25,56.41,414.24,56.7Z"/><path class="cls-211" d="M397.86,61.42l0-.52c.37-.07,1-.41,1.05,0C399,61.57,398.25,61.3,397.86,61.42Z"/><path class="cls-177" d="M393.54,51.83l.42.53A.54.54,0,0,1,393.54,51.83Z"/><path class="cls-169" d="M407.29,50.54l.28-.58A.44.44,0,0,1,407.29,50.54Z"/><path class="cls-2" d="M380.11,31.43l-.22-.19.24.18Z"/><path class="cls-191" d="M392.74,54.43a.93.93,0,0,1,.09-.21s.09,0,.14,0l-.27.21Z"/><path class="cls-212" d="M426.45,45.21c.13,1.59-.37,2.55-2.18,2.23-.39.29-.58,0-.75-.27.38-1.21-1.8-1.24-1.19-2.56l.1-.47,0,0c.69-.49.53-1.34.82-2s1-.28,1.48-.59a1.06,1.06,0,0,1,.88.21c.22.14-.07.46.08.49s.14-.31.31-.42c.65-.68,1.75-1.06,1.51-2.31a1.22,1.22,0,0,1,.25-.92h.49c1.17.57,1.92,1.62,1.14,2.68-1,1.32-.71,3.6-3,3.94Z"/><path class="cls-213" d="M433.07,32.21c.23,2.93-.71,4.4-3,4.69-.42-.57-1.23-1.17.17-1.54.36-.22.44-.64.66-1l.14-.27.14-.28c.55-.63.36-2.12,1.88-1.64Z"/><path class="cls-214" d="M425.07,41.84l-1.85.33-.14-.61,0,0c2,.36.05-1.3.81-1.58s.71-1.14,1.21-1.6.78-1.14,1.41-.23c0,.57.17.81.72.38a.69.69,0,0,1,.59.09l-.06,0,.21,1C427.55,41.11,426.3,41.47,425.07,41.84Z"/><path class="cls-215" d="M437.31,19.09l.44.33c-.88,2-1.18,4.28-2.31,6.21-.46-.16-.34-.67-.57-1C435.68,22.8,436.05,20.75,437.31,19.09Z"/><path class="cls-216" d="M426.28,38.32c-.94-.9-.76.43-1.17.6s0,1.63-1.25,1.09c.3-1,1.44-1.75.35-3-.37-.44.93-.74.88-1.54a3.32,3.32,0,0,1,1.61,2.27C427,38.24,426.72,38.32,426.28,38.32Z"/><path class="cls-6" d="M431.19,29.49a2,2,0,0,0,2.48-.39l.08.07a1,1,0,0,1-.45,1.54c-.85.83-2,.06-3,.66-.7.41-.79-.67-.85-1.28C429.9,29.57,430.7,30,431.19,29.49Z"/><path class="cls-217" d="M433.13,22.85c.43,1.65-.84,3.35-3.14,3.94,1.1-1.47,2.49-2.46,3.17-4Z"/><path class="cls-218" d="M428.85,34.12c-.71,0-1.64.6-2.06-.79l3.34-.91c.34-.18.71-.32,1,.09s-.1.54-.29.75a5.65,5.65,0,0,1-.81.49,3.6,3.6,0,0,1-.85.35Z"/><path class="cls-6" d="M430.37,33c.23,0,.57-.09.49-.29s-.47-.23-.72-.33a2.36,2.36,0,0,1,2.94-.2c-1.62-.11-.58,1.95-1.78,2.18C430.85,34,429.87,34,430.37,33Z"/><path class="cls-219" d="M420,44.39l.33-.14.64.55c.13.39.18.82.57,1.07a1.46,1.46,0,0,1,.3.55c0,.46-.05.84-.63.87l-.67-.5a.6.6,0,0,1-.92.08l-.44.06C418.59,45.79,419.54,45.17,420,44.39Z"/><path class="cls-220" d="M422.33,44.62c.18,1.18,1.53.66,2,1.4.75,1.11.07,1-.7.85a2.91,2.91,0,0,1-2-.64l0,0a.64.64,0,0,1,0-1Z"/><path class="cls-221" d="M430.37,33c.62.24,1.06.6.93,1.36l0,0a1.67,1.67,0,0,1-.66.53l-.28.05L429.2,35c-.27,0-.67.34-.76-.14,0-.23.26-.53.4-.79l-.07,0c.25-.31.71-.29,1-.6A.63.63,0,0,1,430.37,33Z"/><path class="cls-222" d="M433.31,30.72l.45-1.54,1.28-.72c-.33,1.23.07,2.48-1.53,2.65A1.25,1.25,0,0,0,433.31,30.72Z"/><path class="cls-223" d="M426.28,38.32l.43-.61a.49.49,0,0,1,.56.38.84.84,0,0,1,.11.83c-.39.61-.77,1.22-1.68,1.28C425.28,39.38,426,38.92,426.28,38.32Z"/><path class="cls-224" d="M429.29,38a1,1,0,0,1-.77.6c0-.79-.91-1.29-.7-2.29C428.86,36.51,428.94,37.38,429.29,38Z"/><path class="cls-225" d="M433.17,22.81c-.38-.08-1,.37-1.1,0-.31-1,.65-1.23,1.18-1.74.67.7-.23,1.2-.12,1.8Z"/><path class="cls-226" d="M430.08,25.53a1.81,1.81,0,0,1,1-2.35C431.42,24.22,430.92,24.77,430.08,25.53Z"/><path class="cls-227" d="M423.08,41.56c-.4.13-.69.94-1.17.36a.88.88,0,0,1,.4-1.37c.53-.14.65.56.75,1Z"/><path class="cls-228" d="M429.27,24.94c0,1.23,0,1.82-.83,2.24C427.89,26.27,428.45,25.82,429.27,24.94Z"/><path class="cls-229" d="M434.61,20.93a1,1,0,0,1,0-1.45c.08-.09.57,0,.57,0A1.41,1.41,0,0,1,434.61,20.93Z"/><path class="cls-230" d="M422.42,44.15c-.57,0-1.21,0-1-.89,0-.15.4-.37.52-.32.57.22.39.8.49,1.24Z"/><path class="cls-231" d="M427.89,24.59c-.16-1,.54-1.1,1.22-1.25a.9.9,0,0,1,0,.37.68.68,0,0,1-.14.34Z"/><path class="cls-232" d="M434.86,24.66c.49.14.46.6.57,1-.38.7-.76,1-1.19,0Z"/><path class="cls-233" d="M421.56,45.17l0,1c-1.39,0-1.12-.62-.59-1.39Z"/><path class="cls-234" d="M425.33,33.62c.63.1.81.42,1,1.08A1.11,1.11,0,0,1,425.33,33.62Z"/><path class="cls-235" d="M431.19,29.49c-.38.83-1.07.74-1.78.6C429.64,28.79,430.62,29.75,431.19,29.49Z"/><path class="cls-236" d="M428.94,31.72a.36.36,0,0,1-.5.24.42.42,0,0,1-.18-.35.33.33,0,0,1,.49-.25C428.84,31.41,428.87,31.6,428.94,31.72Z"/><path class="cls-221" d="M431.31,34.8a.86.86,0,0,1-1.06.57.78.78,0,0,1,.15-.44l-.05,0A.74.74,0,0,1,431.31,34.8Z"/><path class="cls-72" d="M429,24.05a.25.25,0,0,1,.14-.34A.23.23,0,0,1,429,24.05Z"/><path class="cls-212" d="M427.38,38.92l-.11-.83c.3.08.51.23.53.57Z"/><path class="cls-237" d="M405.89,72.45a31.53,31.53,0,0,0,7.67-1.82c.65-.29,1.45-.64,1.92,0s-.35.92-.74,1.28c-1.08.32-2.12.74-3.23,1-1.38.14-2.77.32-4.16.38C406.76,73.25,406,73.47,405.89,72.45Z"/><path class="cls-64" d="M384.26,70c-1.3,1-2.87.71-4.34.82-.64,0-1-.45-1-1.11,1.36-.22,2.72-.46,4.08-.66C383.73,69,384.38,69,384.26,70Z"/><path class="cls-238" d="M414.61,71.54c.09-.36.81-.64.48-.87s-1-.05-1.54,0c.67-.83,1.64-.49,2.48-.66,2,0,3.67-1.63,5.76-1l.09.82a20.18,20.18,0,0,0-6.68,2.3l-.28-.08A.87.87,0,0,1,414.61,71.54Z"/><path class="cls-239" d="M421.8,69c-1.35.38-2.71.78-4.06,1.15-.58.16-1.19.59-1.7-.15l1.32-.82a19.05,19.05,0,0,1,5.69-.79C422.86,69,422.15,68.64,421.8,69Z"/><path class="cls-240" d="M393.26,70.55c2,.14,3.78-1.24,5.82-.87l-.25.51a4.12,4.12,0,0,1-3.51,1.34,13.39,13.39,0,0,1-1.64.17C392.61,71.69,392.66,71.2,393.26,70.55Z"/><path class="cls-241" d="M398.84,70.55a2.46,2.46,0,0,1,2.37.61c-2.22.34-3.81,1.31-5.73,1.2q-.27-.1-.22-.26c0-.12.07-.18.12-.18h0C396.22,70.68,397.74,71.15,398.84,70.55Z"/><path class="cls-242" d="M392.09,72.23a.55.55,0,0,1,.36,0q.29.13.22.3c0,.12-.1.18-.16.19l-2.36.23a4.77,4.77,0,0,0-.25-2.69c1.91-.59,1.83.43,1.58,1.6A1.48,1.48,0,0,0,392.09,72.23Z"/><path class="cls-44" d="M405.89,72.45c2,1,3.95-.31,5.92,0-2,1.41-4.21.93-6.38,1l0,0C405.49,73.07,405.34,72.61,405.89,72.45Z"/><path class="cls-218" d="M401.45,72l2.85-.69c.19,2.16-1.48,1-2.25,1.34C401.6,72.6,401.18,72.59,401.45,72Z"/><path class="cls-243" d="M398.84,70.55c-1,.93-2.43.61-3.46,1.38q0-.19-.06-.39c.95-1,2.37-.81,3.51-1.34A.55.55,0,0,0,398.84,70.55Z"/><path class="cls-243" d="M392.51,72.73l-.06-.49,2.94-.33a2.75,2.75,0,0,1,.1.45Z"/><path class="cls-244" d="M401.45,72l.59.65a3.29,3.29,0,0,1-1.69.25l-.47-.41C400.27,71.84,400.87,71.92,401.45,72Z"/><path class="cls-63" d="M388.06,73.63c-.48-.29-.47-.61-.06-1Z"/><path class="cls-63" d="M387,71.74a.86.86,0,0,1,.12-.37l.75,0A.86.86,0,0,1,387,71.74Z"/><path class="cls-63" d="M389,71.57l-.48-.3C388.74,71.19,388.93,71.25,389,71.57Z"/><path class="cls-63" d="M388.07,72.58l.5-.41Z"/><path class="cls-240" d="M392.09,72.23a.51.51,0,0,1-.61-.36Z"/><path class="cls-245" d="M421.63,46.23a1.86,1.86,0,0,1,2,.64l.61.58c-.07.63.5,1.19.22,1.82-.78.49-1.42-.42-2.14-.13-1.18-.13-1-1-1.1-1.84Z"/><path class="cls-246" d="M422.11,52l-1.41.52q-.24-.11-.18-.26c0-.1.08-.15.13-.16l.29-.91a.51.51,0,0,0,.66-.09h0C421.94,51.35,422.89,51.19,422.11,52Z"/><path class="cls-247" d="M421.52,50.74c-.69-1.19.2-1,.88-1l1.15.64Z"/><path class="cls-248" d="M434.52,27c.36-.08.51-.73,1-.43s.14.64-.08.79c-.48.33-.91.9-1.68.64l.28-1.07Z"/><path class="cls-249" d="M431,38.43c-.08.08-.17.23-.28.24a.35.35,0,0,1-.41-.4.39.39,0,0,1,.28-.25C430.84,38,431.05,38.11,431,38.43Z"/><path class="cls-4" d="M434.52,27a.33.33,0,0,1-.51-.07v-.21l0,0Z"/><path class="cls-250" d="M429.61,73.13l-.85,0c-.45-.2-.45-.5-.2-.87h0c1.5.07,2.73-1.15,5-.77-1.73.67.69,3.74-2.75,2.94v0C430.36,74,430.33,73.24,429.61,73.13Z"/><path class="cls-251" d="M427.51,71.78l-1.45.29c-.43.05-.65-.08-.47-.55a.66.66,0,0,0,.4-.14c1.59-.87,3.14-1.87,5.33-1.59C430.31,71.33,428.52,70.81,427.51,71.78Z"/><path class="cls-252" d="M432,70a3.76,3.76,0,0,1,3.57-1.38.62.62,0,0,1,.54.68c0,.4-.36.63-.64.5C434.41,69.33,433.39,70.17,432,70Z"/><path class="cls-253" d="M425.91,70.79c-.52,0-1.09.61-1.52.12-.27-.3.18-.69.49-.94l.68-.14c.34-.08.75-.53,1-.09S426.13,70.43,425.91,70.79Z"/><path class="cls-254" d="M404.35,21.63c.7.2,1.12-.49,1.82-.56l-.32.84c-.52.26-1,.61-.91,1.25a1.51,1.51,0,0,1-.43,1.35c-1,0-.83-1.21-1.44-1.63A1.32,1.32,0,0,1,404.35,21.63Z"/><path class="cls-255" d="M405.56,28.85c-.31.08-.43-.11-.52-.35l-.62-1c.32-.95,1.23-1.29,2-1.7,1.2-.66.79.43.89.94C406.19,27,406.52,28.48,405.56,28.85Z"/><path class="cls-256" d="M405.56,28.85a2.54,2.54,0,0,1,1.72-2.09c.53.83-.33,2.08.84,2.72a.71.71,0,0,1,.21.57c-.29.39-.41,1.08-1.15.65V30.2a1.38,1.38,0,0,0-1.5-.72Z"/><path class="cls-257" d="M406.43,22.85a1.72,1.72,0,0,0,.93-.95c.36.05,1.24-.3.69.57a2.77,2.77,0,0,1-1.88,1.29A1,1,0,0,1,406.43,22.85Z"/><path class="cls-15" d="M404.35,21.63l-1.27,1.25c-.58-.64-.77-1.22.24-1.62.31.26.81,0,1.07.42Z"/><path class="cls-258" d="M404.39,21.68c-.43.05-1,.56-1.07-.42l.93-.66C405.44,20.81,404.33,21.32,404.39,21.68Z"/><path class="cls-15" d="M409.88,22.13l0,1c-.21-.05-.58-.06-.61-.17C409.17,22.47,409.54,22.29,409.88,22.13Z"/><path class="cls-131" d="M402.84,27.32l-.53-.38C402.64,26.87,402.81,27,402.84,27.32Z"/><polygon class="cls-77" points="409.43 23.91 409.34 24.04 409.3 23.91 409.43 23.91"/><path class="cls-89" d="M408.11,29.48l.31-.43.3.14c0,.38-.15.65-.61.49Z"/><path class="cls-89" d="M408.48,28.69l.57.39v0c-.12.25-.28.28-.48.08l-.16-.12A1,1,0,0,0,408.48,28.69Z"/><path class="cls-7" d="M428.56,72.22l.2.87c-1.5.53-2.78,1.75-4.55,1.42a.51.51,0,0,1,0-.47l.2-.08-.08-.21-.06-.21A15.83,15.83,0,0,1,428.56,72.22Z"/><path class="cls-259" d="M422.93,72c.06.24,0,.47-.21.56a.66.66,0,0,1-.79-.33c-.23-.34,0-.61.29-.69S422.77,71.75,422.93,72Z"/><path class="cls-7" d="M425.59,71.52l.47.55c-.32.42-.8.66-1.12.2C424.73,72,425.19,71.63,425.59,71.52Z"/><path class="cls-12" d="M424.27,74.05a.87.87,0,0,1-.06.45c-.29,0-.68,0-.73-.31-.08-.51.52-.42.76-.67v.24Z"/><path class="cls-7" d="M429.61,73.13c1.05-.21,1.05.6,1.21,1.26l-1.15-.82h0Q429.64,73.34,429.61,73.13Z"/><path class="cls-7" d="M429.67,73.57l-.44.44-.19-.24.61-.2Z"/><path class="cls-260" d="M378.58,16.2c.22.07.49.13.33.44s-.25.45-.41.47-.34-.24-.31-.46S378.24,16.16,378.58,16.2Z"/><path class="cls-261" d="M427,62.63c-.93-1.26-.16-2.34.19-4C428.19,60.38,427.49,61.48,427,62.63Z"/><path class="cls-262" d="M413.8,73.1l0-.51c0-1.1.81-.68,1.38-.71l.07.2.05.5C414.91,73.14,414.33,73.07,413.8,73.1Z"/><path class="cls-63" d="M387,72.33c-.24-.15-.59-.3-.05-.53Z"/><path class="cls-63" d="M386.86,73.72l.25-.52Z"/><path class="cls-65" d="M435.28,49.76c-.55-.05-.49-.54-.64-.88.49-.8.24-1.73.57-2.58A4.08,4.08,0,0,1,435.28,49.76Z"/><path class="cls-263" d="M419.72,22.12a1.13,1.13,0,0,1,.45-.05l.55.28C420.27,22.75,419.95,22.63,419.72,22.12Z"/><path class="cls-262" d="M413.32,73.49l.47-.38A.43.43,0,0,1,413.32,73.49Z"/><path class="cls-264" d="M415.13,71.89c-.48.21-1.12.09-1.38.71l-.92.28a2,2,0,0,0-.57.35,34.94,34.94,0,0,1-6.71.63,1.64,1.64,0,0,1-.13-.42c2.13-.3,4.35,0,6.38-1l2.81-.92Z"/><path class="cls-262" d="M412.27,73.23l.57-.35Z"/><path class="cls-265" d="M378.24,73.18l.32-1,.17-.12a17.14,17.14,0,0,1,6.32-.56l-1.44,1.56C381.8,72.21,380,73.2,378.24,73.18Z"/><path class="cls-266" d="M385,71.51l-6.32.56a12.8,12.8,0,0,1,7.15-.78Z"/><path class="cls-267" d="M431.78,45.71c1.1.88.7,2.22,1,3.34-.69,1-.11,2.3-.91,3.24-.47-.22-.35-.7-.5-1.06C432.32,49.45,431.07,47.51,431.78,45.71Z"/><path class="cls-268" d="M411.79,46.72l.8-.79c.45.13.93-.49,1.37.05a.27.27,0,0,1,.37-.1c-.43,1.24.7.67,1.1.89.63.35,1.41.44,2,.83s.73,1.11-.11,1.46C416,49.61,412.56,48.11,411.79,46.72Z"/><path class="cls-269" d="M407.86,49.42l-.14-.07-.12.1a14,14,0,0,1-1.84-3.23c-.55-.64-1.4-.46-2.07-.77q-.21-.43.25-.54l1.54-.61C406.78,45.78,408.68,47,407.86,49.42Z"/><path class="cls-270" d="M420,44.39l-.81,2.53c-1.08.18-1,.12-1.72-1-.46-.72-1.54.09-2.17-.52C416.88,45,418.57,45.28,420,44.39Z"/><path class="cls-271" d="M419.92,51.42c-.67-.43-2.24-.82-1.48-1.19s.28-2,1.31-1.57C421.22,49.3,419.88,50.45,419.92,51.42Z"/><path class="cls-272" d="M409.76,52.7l3.59-.31.89,0c-1.28,2.13-3.42.45-5,1.13C409,52.94,409.4,52.84,409.76,52.7Z"/><path class="cls-273" d="M415.88,53.26l-.92,1h-.48c.59-1,0-2.93,2.18-2.62l.05,1,0,0a3.57,3.57,0,0,1-.48.58l0,0A.36.36,0,0,1,415.88,53.26Z"/><path class="cls-274" d="M420.65,52.15a3.14,3.14,0,0,1,.06.42l-.86,1.13c-.45.16-.89.33-1.07-.35A3.45,3.45,0,0,1,420.65,52.15Z"/><path class="cls-275" d="M410.08,46.59a.72.72,0,0,1,.57.64c0,.4-.27.52-.59.54a.49.49,0,0,1-.54-.58A.6.6,0,0,1,410.08,46.59Z"/><path class="cls-276" d="M406.86,40.71c.58-.36,1.24-1,1.36.36l0,0c-.27.3-.38.85-1,.64h0c-.13-.2-.34-.33-.41-.57A.8.8,0,0,1,406.86,40.71Z"/><path class="cls-277" d="M414.95,50.12a.84.84,0,0,1-1.28,0,.36.36,0,0,1,.11-.59A1,1,0,0,1,414.95,50.12Z"/><path class="cls-278" d="M416.65,51.11c-.08-.41-.78-.67-.33-1.2a.37.37,0,0,1,.6.05c.39.5.18.85-.3,1.12Z"/><path class="cls-68" d="M402,42.14c.56-.07,1.18,0,1.4-.75.34.24.61.71.3.93C403.18,42.69,402.48,43,402,42.14Z"/><path class="cls-101" d="M407.27,41.68l1-.64a1.54,1.54,0,0,1-.82,1.63Z"/><path class="cls-279" d="M419.65,46.86l.92-.08c0,.37.17.89-.4.93S419.73,47.21,419.65,46.86Z"/><path class="cls-280" d="M407.91,45.18c-.1.08-.21.24-.3.23a.38.38,0,0,1-.34-.49c0-.19.19-.24.36-.11A1.79,1.79,0,0,1,407.91,45.18Z"/><path class="cls-2" d="M400.91,42.74c0-.43,0-.84.43-1.06C401.39,42.1,401.38,42.51,400.91,42.74Z"/><path class="cls-6" d="M421.61,51.15c-.17.39-.41.33-.66.09Z"/><path class="cls-101" d="M406.85,41.1l.41.57A.43.43,0,0,1,406.85,41.1Z"/><path class="cls-281" d="M415.22,42.14a2.46,2.46,0,0,1,.25-2.17A1.78,1.78,0,0,1,415.22,42.14Z"/><path class="cls-119" d="M417.41,43.65c.15.32.15.76-.15.84s-.44-.36-.54-.66l.3-.31.3.07Z"/><path class="cls-282" d="M413.1,24.74c0,.76-.61,1-1.28,1.15s-1-.07-1.1-.64c-.09-.91.5-1.3,1.34-1.36A.88.88,0,0,1,413.1,24.74Z"/><path class="cls-145" d="M415.06,25.06c1.09,1.09.25,1.52-.66,1.93-.3-.23-.67-.4-.74-.83C414.33,26,414.9,25.81,415.06,25.06Z"/><path class="cls-283" d="M403.95,44.91a.38.38,0,0,0-.25.54c-.5.68-.93.36-1.37-.1C402.68,44.49,403.53,45.47,403.95,44.91Z"/><path class="cls-73" d="M398.35,25.69l.48.47Z"/><path class="cls-284" d="M394.65,42.85a.47.47,0,0,1,.42.49,1.46,1.46,0,0,0-.12.79,1.53,1.53,0,0,0,.41,1,2,2,0,0,0,.86,1c-.94,1.06-2.58,1-2.8-.19a5.32,5.32,0,0,0-1.73-3.46,1.26,1.26,0,0,1,0-1.77c.74-.54,1.15.1,1.39.78a1.8,1.8,0,0,0,1.08,1.1A1,1,0,0,1,394.65,42.85Z"/><path class="cls-285" d="M392,47.08l-.59-1.4c-.2-.63-1.11-1.18-.24-1.94l1.4,2.7Z"/><path class="cls-286" d="M396.22,46.14c-.65.05-.89-.34-1-.91-.37-.38-.82-.73-.6-1.37l.41-.52,1.21,2.36A.41.41,0,0,1,396.22,46.14Z"/><path class="cls-287" d="M394.14,42.89c-1,0-1-.72-1.07-1.39l1,.46A.72.72,0,0,1,394.14,42.89Z"/><path class="cls-286" d="M394.14,42.89,394,42a.47.47,0,0,1,.45-.1l.18,1Z"/><path class="cls-288" d="M398.47,40c-.63,0-.84-.27-.76-.58a1.2,1.2,0,0,1,1-.88c.42-.06.55.35.51.61A1.17,1.17,0,0,1,398.47,40Z"/><path class="cls-289" d="M414,46c-.45-.16-.94.73-1.37-.05.26-.46.41-1.14,1.15-.85C414.1,45.22,414.37,45.56,414,46Z"/><path class="cls-290" d="M408.58,29.18a.77.77,0,0,1,.48-.08c.22,1.21-1.14,1.61-1.35,2.61-.33,0-.65.09-.81.43-.43.16-1.07.52-.74-.43.14-.41.66-.68,1-1,.53-.14.66-.66,1-1Z"/><path class="cls-291" d="M405.66,29.48c.39-.25.86-.78,1.14-.69.62.2.31.9.36,1.41C406.47,30.36,405.87,30.33,405.66,29.48Z"/><polygon class="cls-66" points="417.33 43.58 417.2 43.47 417.03 43.52 417.2 43.41 417.33 43.58"/><path class="cls-292" d="M415.88,53.26l.43-.19c0,.31-.08.48-.42.41Z"/><path class="cls-3" d="M415,54.25a.94.94,0,0,1,.22.1s0,.1,0,.15l-.27-.25Z"/><path class="cls-3" d="M394.86,56.15c1.7.09.64,1.65,1.25,2.33.25.63.06,1-.59.63a5.12,5.12,0,0,0-2.44-.76C393.16,57.21,395.43,57.83,394.86,56.15Z"/><polygon class="cls-293" points="405.79 48.81 405.88 48.99 405.71 48.99 405.79 48.81"/><path class="cls-294" d="M385.34,54.21c.53,0,.47.57.7.86s.5.54.19.8c-.12.1-.54-.15-.83-.24Z"/><path class="cls-295" d="M392.31,50l-.25-2.53c.72,1.12.91,1.82.24,2.52Z"/><path class="cls-292" d="M416.28,53.12c-.05-.37.1-.56.48-.58A.46.46,0,0,1,416.28,53.12Z"/><path class="cls-296" d="M425.07,41.84l2.87-2.21c.32,1.44-.11,1.94-2.31,2.68l0,0Z"/><path class="cls-297" d="M426.45,45.21l-1.43.24c.43-.81.85-1.09,1.5-1.06l-.1.86Z"/><path class="cls-298" d="M426.12,43.78c-.12,0-.4,0-.41-.11-.08-.43.34-.43.58-.57.05,0,.28.11.29.19C426.62,43.59,426.4,43.71,426.12,43.78Z"/><path class="cls-296" d="M425.64,42.31a1.09,1.09,0,0,1-.09.2c-.16,0-.12-.1.11-.18Z"/><path class="cls-6" d="M431.31,34.8l-1,.17c.12-.55.56-.58,1-.62A.6.6,0,0,1,431.31,34.8Z"/><path class="cls-6" d="M429.73,33.54l-1,.6C428.91,33.64,429.43,33.77,429.73,33.54Z"/><path class="cls-299" d="M424.27,74.05a.56.56,0,0,0,0-.28,1.15,1.15,0,0,1,1.32-.07A1.18,1.18,0,0,1,424.27,74.05Z"/><path class="cls-287" d="M394.66,43.86a1.87,1.87,0,0,1,.6,1.37C394.09,45.2,393.95,44.72,394.66,43.86Z"/><path d="M47.07,41.76v-15c0-4.31-2.33-6.49-6-6.49a5.7,5.7,0,0,0-6.1,6.1V41.76H31.41v-15c0-4.31-2.33-6.49-6-6.49s-6.1,2.23-6.1,6.49v15H15.75V17.37h3.57V20a8.89,8.89,0,0,1,6.89-3,8,8,0,0,1,7.48,4.06,9.33,9.33,0,0,1,8-4.06A8.88,8.88,0,0,1,48,19.36a9.07,9.07,0,0,1,2.63,6.79V41.76Z"/><path d="M71.16,41.76V39.43c-2,2-3.77,2.63-7,2.63s-5.35-.64-6.89-2.23a7,7,0,0,1-1.83-5c0-4.26,3-7,8.42-7h7.33V25.5c0-3.57-1.78-5.35-6.24-5.35-3.12,0-4.71.74-6.15,2.78l-2.43-2.23C58.52,17.87,61,17.08,65,17.08c6.54,0,9.76,2.82,9.76,8.13V41.76Zm0-11.25H64.32c-3.67,0-5.45,1.49-5.45,4.31S60.6,39,64.47,39c2.08,0,3.92-.15,5.45-1.64.84-.79,1.24-2.18,1.24-4.21Z"/><path d="M97,41.76v-15c0-4.31-2.33-6.49-6-6.49s-6,2.23-6,6.49v15H81.41V17.37H85V20a8.79,8.79,0,0,1,6.84-3,8.55,8.55,0,0,1,6.24,2.28,9,9,0,0,1,2.53,6.79V41.76Z"/><path d="M116.7,42.06c-5.15,0-11.55-2.78-11.55-13.23s6.39-13.18,11.55-13.18a11,11,0,0,1,8.52,3.47l-4.36,4.36a5.21,5.21,0,0,0-4.16-2A4.47,4.47,0,0,0,113,23.12c-1,1.24-1.44,3-1.44,5.7s.45,4.51,1.44,5.75a4.47,4.47,0,0,0,3.67,1.69,5.21,5.21,0,0,0,4.16-2l4.36,4.31A11,11,0,0,1,116.7,42.06Z"/><path d="M141.27,41.76V39.53A7.85,7.85,0,0,1,134.93,42c-2.92,0-5.06-.74-6.59-2.28a8.27,8.27,0,0,1-2.13-5.8c0-4.11,2.82-7.48,8.82-7.48h6.1V25.16c0-2.83-1.39-4.06-4.81-4.06a5.54,5.54,0,0,0-5,2.13l-4.11-4c2.53-2.78,5-3.57,9.32-3.57,7.24,0,11,3.07,11,9.12v17Zm-.15-10.9H136c-2.33,0-3.62,1.09-3.62,2.92s1.19,3,3.72,3c1.78,0,2.92-.15,4.06-1.24.69-.64.94-1.68.94-3.27Z"/><path d="M163.67,41.76h-5.06L149.1,15.94h6.79l5.25,16,5.2-16h6.79Z"/><path d="M187.71,41.76V39.53A7.84,7.84,0,0,1,181.37,42c-2.92,0-5.06-.74-6.59-2.28a8.27,8.27,0,0,1-2.13-5.8c0-4.11,2.83-7.48,8.82-7.48h6.1V25.16c0-2.83-1.39-4.06-4.81-4.06a5.54,5.54,0,0,0-5,2.13l-4.11-4c2.53-2.78,5-3.57,9.32-3.57,7.24,0,11,3.07,11,9.12v17Zm-.15-10.9h-5.1c-2.33,0-3.62,1.09-3.62,2.92s1.19,3,3.72,3c1.78,0,2.92-.15,4.06-1.24.69-.64.94-1.68.94-3.27Z"/><path d="M14.86,78.42V47.75h6V73.08H34.77v5.34Z"/><path d="M59.66,78.42,57.85,73H47L45.1,78.42H38.85L50,47.75h4.7L65.9,78.42ZM52.51,56.8,48.63,68h7.62Z"/><path d="M101.13,78.42l-6-12.23H90.84V78.42h-6V47.75h12c6.25,0,10,4.26,10,9.39a8.26,8.26,0,0,1-5.6,8.05l6.85,13.22ZM96.48,53.09H90.84v8.1h5.64c2.63,0,4.35-1.68,4.35-4S99.11,53.09,96.48,53.09Z"/><path d="M115.6,78.42V47.75h20.2v5.34H121.59v7.19h12.1v5.34h-12.1v7.45H135.8v5.34Z"/><path d="M156,53.09V78.42h-6V53.09h-8V47.75h22v5.34Z"/><path d="M171.42,78.42V47.75h20.2v5.34H177.4v7.19h12.1v5.34H177.4v7.45h14.21v5.34Z"/><path d="M257.74,41c-.58,1.26-1.19,2.51-1.72,3.79a1.16,1.16,0,0,1-1.25.85,4,4,0,0,1-3.24-2.14c-2.52-4-2.15-8.41-2.22-12.78,0-.67,0-1.34,0-2s-.28-.92-1-.93c-3.36,0-6.71-.13-10.07-.21l-19.34-.5H218c-.07,1.82-.16,3.56-.21,5.3a15.52,15.52,0,0,1-1.23,6.24,9.28,9.28,0,0,1-4.41,4.31,1.27,1.27,0,0,1-1.93-.48c-.57-1-1.13-2-1.71-3-.11-.19-.26-.35-.56-.75a16,16,0,0,0-.5,1.57c-.16.83-.23,1.67-.41,2.5-.39,1.82-.74,2-2.48,2.21a5,5,0,0,0-1,.15c-.19.06-.43.29-.44.46s.24.42.41.46a12.84,12.84,0,0,0,1.52.21c0,.57,0,1.19-.12,1.8a176.2,176.2,0,0,0-2.37,19c-.16,3.61-.38,7.22-.57,10.94-.32,0-.77.13-.94,0s-.11-.63-.08-1c.17-2.09.33-4.18.53-6.26.32-3.2.67-6.4,1-9.6.3-2.75.63-5.49.94-8.23l.67-5.86c-.4-.12-.73-.21-1.05-.32-.49-.16-1.17-.35-.93-1a2.75,2.75,0,0,1,1.23-1.27,4.49,4.49,0,0,1,1.74-.37c.88-.07,1-.66,1.18-1.37.33-1.58.67-3.16,1.08-4.72.21-.79.77-.91,1.23-.26A22.47,22.47,0,0,1,209.83,40,13.68,13.68,0,0,0,211,42a1.28,1.28,0,0,0,1.14.18,6.49,6.49,0,0,0,4.07-4.4c1.07-3.49,1-7.12.86-10.89a7.63,7.63,0,0,1-1.65,0,1.24,1.24,0,0,1-.75-.72c-.14-.43,0-.79.56-1,2.41-1,4.8-2,7.2-3,1.16-.48,2.31-1,3.49-1.39a1.15,1.15,0,0,0,.89-1.3c-.06-.81,0-1.64,0-2.45s.24-1.25,1.07-1.22,1.1-.36,1.08-1.17c0-1.21,0-1.22,1.23-1.24h1.72V9.94l-1.18-.11-.2-.22c1.35-.08,1.65-.95,1.62-2.06l.34.08.21,1.62,1.08.28v.27l-1.15.34v3.24h2.89v2.12a10.94,10.94,0,0,0,1.28.14c.71,0,.9.34.87,1a15.7,15.7,0,0,0,0,2.36,1.37,1.37,0,0,0,.56.95c3.58,1.91,7.18,3.78,10.77,5.66.82.43,1.65.87,2.45,1.34.16.09.22.36.33.54a1.9,1.9,0,0,1-.5.27c-1.3.26-1.23,0-1.2,1.47.06,3.23,0,6.48.35,9.7a7.24,7.24,0,0,0,2.74,4.88c.41.34.77.74,1.16,1.1s.72.46,1-.17c.69-1.71,1.41-3.41,2.14-5.11.08-.18.34-.44.43-.41.24.08.57.26.64.47a15.17,15.17,0,0,1,.64,2.7,31.16,31.16,0,0,1,.05,3.15c0,.63.3.93.93.84a1.21,1.21,0,0,1,1.48.88,1.36,1.36,0,0,1-.88,1.62l-1,.48c.6,3.16,1.24,6.31,1.79,9.46.77,4.41,1.54,8.83,2.2,13.26.33,2.22.4,4.47.58,6.71a1,1,0,0,1,0,.51,2.78,2.78,0,0,1-.44.51c-.13-.18-.36-.35-.38-.54-.21-2.41-.38-4.82-.58-7.23a100.93,100.93,0,0,0-2-12.42c-.58-2.73-1-5.5-1.5-8.25a13.57,13.57,0,0,0-.29-1.62c-.21-.69,0-1,.68-1.2a1.89,1.89,0,0,0,.85-.39.9.9,0,0,0,.29-.72.85.85,0,0,0-.64-.41,1.94,1.94,0,0,1-1.94-2.33,26.56,26.56,0,0,0,0-2.77A3.41,3.41,0,0,0,258,41ZM220.06,25.75l0,.23,26.68.77.06-.26c-1-.39-2-.76-2.94-1.19-1.86-.82-3.7-1.68-5.56-2.5s-3.69-1.63-5.55-2.4a1.15,1.15,0,0,0-.8.09c-2.21,1-4.41,1.94-6.62,2.92Zm16.79-6.44c0-.82,0-1.47,0-2.12s-.06-.75-.66-.85c-1.37-.23-1.36-.28-1.41-1.66,0-.16,0-.33-.07-.52h-5.3a3.45,3.45,0,0,0,0,.47c.07,1.56.07,1.54-1.45,1.79a.82.82,0,0,0-.5.6c-.05,1,0,2,0,3.11,1.25-.53,2.37-1,3.5-1.48.49-.19.85-.38.83-1s.35-.85.94-.58c.3.14.59.3.89.46Zm-19.72,6.38.05.2a6.28,6.28,0,0,0,2-.14c4.22-1.81,8.42-3.68,12.61-5.57a1.7,1.7,0,0,1,1.56,0q2.41,1.11,4.85,2.18c1.61.71,3.23,1.39,4.84,2.08a1.25,1.25,0,0,0-.58-.56c-2.75-1.37-5.51-2.73-8.26-4.11a3,3,0,0,0-2.67,0c-4.37,1.82-8.76,3.6-13.14,5.4C218,25.3,217.56,25.5,217.14,25.69Z"/><path d="M239,78.29c0-.31,0-.66,0-1q0-8.71,0-17.43c0-1.54,0-1.58-1.56-1.58-2.95,0-5.9,0-8.84,0-.68,0-1,.14-1,.9-.09,4.06-.24,8.11-.36,12.16-.06,2.16-.14,4.32-.16,6.47,0,.43,0,.83-.53.74-.19,0-.45-.48-.45-.74,0-3.39,0-6.77.06-10.16,0-3.15.07-6.3.06-9.46,0-.86.31-1.25,1.16-1.24,2.74,0,5.48.05,8.23.06,1.14,0,2.28,0,3.41-.09.81,0,1.17.21,1.24,1.06s.13,1.69.13,2.54q0,8.45,0,16.9C240.32,78.56,240.13,78.69,239,78.29Z"/><path d="M219.35,51.65c-.22,1.84-.49,3.68-.66,5.53-.48,5.23-.95,10.45-1.36,15.68-.12,1.45,0,2.92,0,4.38,0,.45,0,.83-.77.69.2-9.07-.44-18.19.93-27.23l.44,0c-.15,1.73-.35,3.46-.45,5.19s-.14,3.56-.17,5.33,0,3.61,0,5.66c.19-2.23.33-4.24.55-6.24.31-2.92.67-5.84,1-8.76a4.32,4.32,0,0,1,.44-1.31.68.68,0,0,1,.56-.3c.16,0,.37.27.43.45a3.75,3.75,0,0,1,.12,1q0,12,.06,24.08c0,.52.1,1,.08,1.57,0,.22-.22.44-.34.65-.16-.21-.43-.41-.46-.63a20.3,20.3,0,0,1-.13-2.34q0-11.33,0-22.67,0-.39,0-.78Z"/><path d="M208.44,44.7a10.66,10.66,0,0,1,1.07,0l13.88.82c.54,0,.93-.08,1-.7.16-3,2.22-4.33,4.75-5.11a10.17,10.17,0,0,1,10.33,2.07,6.39,6.39,0,0,1,2.09,4.53h16.31l.09.48a3,3,0,0,1-.91.31c-2.74,0-5.49,0-8.23-.06-6.65-.13-13.3-.18-19.94-.44-6.15-.24-12.29-.71-18.43-1.1-.66,0-1.32-.2-2-.31ZM225,45.76l15.71.38a6.52,6.52,0,0,0-3.38-5.2,10.79,10.79,0,0,0-8.86-.52A5.16,5.16,0,0,0,225,45.76Z"/><path d="M207.48,46.69a2.37,2.37,0,0,1,.85-.29c2.24.17,4.47.45,6.71.57,7.55.4,15.09.85,22.64,1.1,6.44.21,12.9.16,19.35.23a2,2,0,0,1,1,.32c-16.65.74-33.24-.12-49.81-1.28-.25,0-.49-.26-.73-.39Z"/><path d="M245.23,79.21c0-.53-.12-1.09-.11-1.64.1-5.33.24-10.66.32-16,0-3.18,0-6.36,0-9.53,0-.27.24-.54.37-.82.13.27.38.54.38.81q.08,3.8.08,7.6,0,8.75,0,17.49c0,.41,0,.82,0,1.22S246,79.25,245.23,79.21Z"/><path d="M248.2,51.5c1,.88.59,1.89.6,2.76.12,7.57.17,15.15.24,22.72a2.22,2.22,0,0,1-.07.86c-.1.24-.37.4-.57.59-.14-.21-.39-.42-.4-.64,0-2.16,0-4.32,0-6.48,0-6.24-.05-12.48-.07-18.73A5.07,5.07,0,0,1,248.2,51.5Z"/><path d="M254,52.45c1,8.21.68,16.22.33,24.4C253.45,71,253.09,53.54,254,52.45Z"/><path d="M210.53,76.94c-.06-1.11-.19-2.23-.16-3.34.11-4.6.23-9.21.43-13.81.14-3.16.43-6.32.67-9.48a2.45,2.45,0,0,1,.26-.67l.29.07-1.08,27.21Z"/><path d="M209.49,50.07c0,.8,0,1.6,0,2.4-.32,6.56-.67,13.11-1,19.67-.08,1.57-.08,3.15-.15,4.72,0,.23-.24.45-.37.68-.11-.22-.33-.45-.32-.67.14-4.05.27-8.1.47-12.15s.49-8.27.75-12.4c0-.77.15-1.53.22-2.3Z"/><path d="M256.73,78.39c0-.28-.05-.56-.06-.84-.11-5.16-.16-10.32-.36-15.48-.12-3.08-.47-6.16-.69-9.24,0-.27.19-.56.29-.83.15.26.4.52.42.79.25,3.81.55,7.62.67,11.43.15,4.43.14,8.86.19,13.29a5.09,5.09,0,0,1-.15.91Z"/><path d="M223.58,29.6c0,2.7,0,5.41,0,8.11,0,1.83-.1,3.66-.19,5.5,0,.23-.21.45-.32.67-.12-.22-.36-.44-.36-.66q.15-6.49.36-13c0-.26.23-.51.36-.77Z"/><path d="M219.38,43.84c0-2.1,0-4.19,0-6.28,0-2.45.13-4.89.22-7.34a6.13,6.13,0,0,1,.27-1.07C220.59,30.52,220,43.41,219.38,43.84Z"/><path d="M246.7,44.51c-.39-4.73-.05-9.48-.2-14.24.75-.11.68.35.68.74q0,3.54,0,7.09c0,1.75,0,3.5,0,5.25,0,.39-.08.78-.12,1.17Z"/><path d="M242.68,30.11c.8-.22.68.3.68.68,0,2.77,0,5.54,0,8.31,0,1.75.19,3.49.29,5.24,0,.12.06.26,0,.34a3.5,3.5,0,0,1-.37.49c-.11-.17-.3-.33-.31-.5q-.2-6.25-.35-12.5C242.67,31.5,242.68,30.83,242.68,30.11Z"/><g id="BDFSYI"><path d="M296.66,78c-1.62-.2-3.31,0-4.93-.27l0-.51,15.12.15c.06-1.52.13-3,.16-4.43q.21-12.64.37-25.28c0-.85.2-1.14,1.12-1.1q9.75.46,19.51.79c1,0,1.22.42,1.22,1.34q-.13,14-.2,28c0,.28,0,.56,0,1,.47,0,.91,0,1.34,0,2.23,0,4.47,0,6.7.07.52,0,.83-.05.85-.69.4-11.39.82-22.77,1.24-34.4L293.29,42c0,.46,0,.8,0,1.14q-.51,16.32-1,32.64a10,10,0,0,1-.21,1.31l-.43,0a6.81,6.81,0,0,1-.23-1.33c.12-4.75.28-9.51.4-14.26.17-6.32.32-12.64.48-19,0-1.44.27-1.66,1.72-1.63,12.41.24,24.83.51,37.24.72,7,.12,14,.15,21.06.21.18,0,.35,0,.65,0l-1.72-2.31-.46,0q-31.15-1.13-62.3-2.24a4.47,4.47,0,0,0-1.58.25c-2.53.87-5,1.8-7.57,2.69-1.09.39-1.62,0-1.64-1.17q-.05-4.2-.11-8.42c-.1,0-.2-.11-.27-.09l-6.38,2c-.14,0-.25.21-.39.26-1.77.58-2.08.33-2.22-1.55-.22-2.94-.5-5.88-.77-9l-12.63,3.59-.16-.35a3,3,0,0,1,.72-.47c3.85-1.15,7.7-2.31,11.58-3.37a10.63,10.63,0,0,1,2.86-.14q23.41.23,46.82.49c4,0,7.91.15,11.87.2.57,0,.91.13,1,.72.19,1,.49,2,.58,3,.13,1.34.11,2.7.16,4L330,30a4.11,4.11,0,0,1-.37-1.06c-.08-1.18-.08-2.36-.11-3.54a5.44,5.44,0,0,0-.05-.76c-.28-1.62-.55-1.81-2.15-1.83-6.61-.07-13.21-.17-19.82-.24q-14.74-.15-29.48-.27c-3,0-6,0-9.11,0l.38,9.63c2.1-.73,4.14-1.42,6.16-2.16a4.45,4.45,0,0,1,3.15-.41,14.78,14.78,0,0,0,4,.21l12.71.24,22.48.42c6.73.13,13.45.25,20.18.41a1.21,1.21,0,0,1,.92.57c.93,2.37,1.79,4.76,2.71,7.26l1,0c6.67.11,13.34.23,20,.29A1.74,1.74,0,0,1,364.54,40c.12.36.34.68.49,1,.42,1,.08,1.54-1,1.61l-9,.64-.31,0-1.36,37.48L359,80.4c1.3-.11,2.6-.29,3.91-.35.69,0,.93-.24.95-.95.22-8,.47-16,.71-24,.11-3.67.2-7.34.34-11a3.78,3.78,0,0,1,.47-1.17,3.53,3.53,0,0,1,.42,1.17c-.29,9.51-.63,19-.94,28.52-.08,2.39-.12,4.79-.14,7.18,0,.65-.18.83-.87.88-3.4.25-6.8.58-10.19.88a2.28,2.28,0,0,1-.75,0c-3-.79-6-1.69-9.07-2.35a33.89,33.89,0,0,0-6.43-.79c-9.89-.19-19.79-.26-29.68-.38l-8.71-.1c-.41,0-.81,0-1.19,0m44.33-.06,0-1.11c.17-4.68.36-9.35.49-14,0-.86.34-1.14,1.15-1s1.71.19,2.57.25c1.57.11,1.69.23,1.63,1.77-.18,4.91-.36,9.82-.52,14.73,0,.33.11.9.3,1,1.62.49,3.28.89,4.84,1.3L354,43.24l-14.08-.51-1.27,35ZM278.52,30l.23,9.56c1.83-.66,3.5-1.36,5.21-1.86s3.07-1.34,4.85-1.27c9,.38,18,.69,27,1l23.62.87,1.17,0c-.92-2.39-1.75-4.59-2.64-6.77-.1-.23-.6-.42-.92-.42Q326,31,315,30.81c-8.29-.13-16.58-.2-24.86-.35C286.31,30.39,282.5,30.19,278.52,30ZM327.77,48l-9.15-.33-.76,29.83,1.05,0c2.61,0,5.23,0,7.84.12.94,0,1.09-.3,1.09-1.13,0-6.79,0-13.58,0-20.38C327.79,53.41,327.78,50.7,327.77,48Zm-10.6,29.58c0-.35.08-.54.08-.73q.06-10.47.11-20.93c0-2.49,0-5,.06-7.46,0-.7-.23-.94-.93-1-2.26,0-4.52-.14-6.79-.23-.61,0-.78.29-.78.82,0,1.11,0,2.23,0,3.34q-.18,11.29-.36,22.57c0,1.13-.08,2.26-.12,3.25Zm29.59,1.66c.08-2.11.15-4,.22-6,.12-3.18.25-6.37.33-9.55,0-.3-.22-.86-.39-.88-1.15-.12-2.32-.12-3.53-.17-.07,1.87-.13,3.68-.2,5.49-.12,3.12-.26,6.23-.35,9.35a1.05,1.05,0,0,0,.48.84C344.39,78.65,345.51,78.89,346.75,79.2Zm17.84-37.82c-.78-.74-.52-1.94-1.8-1.93-3.16,0-6.32,0-9.48,0-.4,0-.8,0-1.21.06l-.14.24c.67.67,1.29,1.39,2,2a1.92,1.92,0,0,0,1.22.38c2.65-.11,5.29-.27,7.93-.43A11.23,11.23,0,0,0,364.59,41.38Zm-57,35.92h.34l.43-29.94H308ZM328.69,48h-.41l.1,26.83h.1Z"/><path d="M284.86,40.29c-2.46.87-4.69,1.73-7,2.43a12.2,12.2,0,0,1-2.75.21l-.11-.41a3.32,3.32,0,0,1,.76-.47c2.94-.85,5.88-1.68,8.83-2.52.94-.27,1.41.17,1.36,1.3q-.54,11.86-1.1,23.71c-.08,1.66-.15,3.32-.29,5,0,.32-.36.61-.56.91a2.77,2.77,0,0,1-.36-1q.54-13.92,1.13-27.83C284.83,41.25,284.84,40.88,284.86,40.29Z"/><path d="M297.48,60.19l-2-.07a1.14,1.14,0,0,1-1.22-1.28c.1-2.57-.28-2.17,2.12-2.1l1.39.05c0-.82.08-1.57.08-2.32s.29-1.21,1.16-1.06a8,8,0,0,0,1.05,0c1.44.05,1.44.05,1.39,1.54,0,.57,0,1.14-.07,1.87.91,0,1.76.09,2.61.09.6,0,.86.2.82.85-.15,2.56.23,2.73-2.65,2.57-.25,0-.5,0-.92,0,0,.68,0,1.33-.07,2,0,1.21-.15,2.42-.11,3.63,0,.87-.4,1.11-1.12,1.16h-.1c-2.56.15-2.56.15-2.48-2.36C297.37,63.31,297.42,61.82,297.48,60.19Zm.76-.84c-.07,2-.14,3.82-.2,5.66-.05,1.47,0,1.47,1.45,1.39a1.06,1.06,0,0,0,.28-.11,2.37,2.37,0,0,0,.07-.37c.07-1.88.16-3.76.19-5.64,0-.62.22-.86.84-.81s1.53.05,2.29.07c.6,0,.82-.25.83-.87s-.24-.78-.78-.78-1.34-.08-2-.06-.88-.27-.83-.92c.08-.94.08-1.88.11-2.8-1.76-.33-2-.18-2,1.38,0,.72-.05,1.44-.08,2.28l-3.32-.12c-.28,1.54-.28,1.54,1.07,1.59Z"/><path d="M288.56,37.49a3.77,3.77,0,0,1,.19.9q-.53,15.15-1.1,30.3a4.86,4.86,0,0,1-.19.86l-.3,0a3.32,3.32,0,0,1-.21-.86q.53-15.2,1.1-30.4a4.1,4.1,0,0,1,.21-.83Z"/><path d="M356.38,45c3,0,2.7-.34,2.6,2.44s-.2,5.46-.3,8.32a14.17,14.17,0,0,1-2-.11,1,1,0,0,1-.6-.69C356.12,51.63,356.25,48.33,356.38,45Zm.33,10,1.18,0,.34-9.23-1.18,0Z"/><path d="M363.7,45l-.39,10.71a17,17,0,0,1-1.88-.1.74.74,0,0,1-.42-.57c.09-3.12.2-6.24.36-9.35,0-.26.46-.64.76-.71A6.4,6.4,0,0,1,363.7,45Zm-.63.79c-.83-.3-1.13-.07-1.15.74q-.09,3.83-.28,7.65c-.05,1,.4,1,1.1.76Z"/><path d="M275.3,32.39c-2.67.77-5.09,2-7.71,2.6l-.17-.43c.8-.36,1.58-.77,2.4-1.07,1.73-.64,3.49-1.19,5.21-1.84.64-.24,1-.2,1,.55q0,4.06,0,8.12a.67.67,0,0,1-.34.48C275.19,38,275.58,35.25,275.3,32.39Z"/><path d="M266,24.65l-2.17.52-.15-.41a9.61,9.61,0,0,1,1.22-.55c1.81-.54,1.81-.53,2,1.35.18,2.41.39,4.81.55,7.22a2.36,2.36,0,0,1-.29.84,3,3,0,0,1-.38-.85c-.23-2.53-.43-5.07-.64-7.6C266.11,25,266.06,24.86,266,24.65Z"/><path d="M327.41,68.83c-2.77.21-5.36-.14-8-.1l-.09-.24c.2-.11.41-.34.6-.33,2.38.09,4.77.22,7.15.34C327.15,68.5,327.19,68.58,327.41,68.83Z"/><path d="M319.22,66.64l7.69.28v.29l-7.7-.28Z"/><path d="M326.8,56.76l-7.51-.27v-.37a71.2,71.2,0,0,1,7.53.25Z"/><path d="M319.39,57.77a63.29,63.29,0,0,1,7.52.22v.34L319.41,58Z"/><path d="M309,68.3c1.27-.53,6.48-.15,7,.48A36.59,36.59,0,0,1,309,68.3Z"/><path d="M309.36,55.73l6.51.24C315.38,56.5,310.17,56.41,309.36,55.73Z"/><path d="M316.28,57.56c-1,.56-6.16.34-6.77-.25Z"/><path d="M316,67.3a52.1,52.1,0,0,1-6.14-.32l0-.33,6.15.22Z"/></g></g></g></svg>